<svg id="Layer_1" enable-background="new 0 0 511.999 511.999" height="512" viewBox="0 0 511.999 511.999" width="512" xmlns="http://www.w3.org/2000/svg"><g><g clip-rule="evenodd" fill-rule="evenodd"><ellipse cx="256" cy="145.98" fill="#ffc144" rx="33" ry="23.75"/><path d="m256 169.73c18.225 0 33-10.633 33-23.75s-14.775-23.75-33-23.75-33 10.633-33 23.75 14.774 23.75 33 23.75zm-28.901 98.491c-55.703-26.688-107.28-51.4-161.099-77.186-15.916-7.625-32.028-15.345-48.502-23.238-2.606-1.241-4.823-3.329-6.178-6.104-.901-1.845-1.325-3.794-1.32-5.713-.004-1.919.42-3.869 1.32-5.713 1.355-2.775 3.571-4.863 6.178-6.104 72.176-34.58 137.425-65.842 209.601-100.423 21.592-10.345 36.21-10.345 57.801 0 72.176 34.581 137.425 65.843 209.601 100.424 2.607 1.241 4.823 3.329 6.178 6.104.901 1.845 1.325 3.794 1.32 5.713.004 1.919-.419 3.869-1.32 5.713-1.355 2.775-3.571 4.863-6.178 6.104-16.473 7.893-32.585 15.612-48.501 23.238-16.138 7.732-32.074 15.368-47.981 22.988-37.141 17.795-74.118 35.512-113.118 54.197-21.592 10.346-36.21 10.346-57.802 0z" fill="#6d91ac"/><path d="m284.9 268.221c39-18.686 75.978-36.402 113.118-54.197 15.907-7.621 31.843-15.256 47.981-22.988v126.026c0 17.305-13.417 33.308-36.156 46.315-3.318-2.447-7.41-3.896-11.825-3.896-10.339 0-18.911 7.951-19.903 18.04-33.024 11.521-75.615 18.464-122.116 18.464-104.934 0-190-35.335-190-78.923v-126.026c53.819 25.786 105.396 50.497 161.099 77.186 21.593 10.345 36.211 10.345 57.802-.001z" fill="#8aa7bd"/><path d="m378.115 377.521c.993-10.089 9.565-18.04 19.904-18.04 4.414 0 8.507 1.449 11.824 3.896 4.95 3.65 8.175 9.518 8.175 16.104v60h-40v-60c.001-.662.033-1.316.097-1.96z" fill="#ffc144"/></g><g><path d="m509.665 145.88c-2.287-4.684-6.146-8.5-10.843-10.735l-209.6-100.424c-24.219-11.604-42.227-11.603-66.443 0l-209.578 100.412c-4.721 2.247-8.581 6.063-10.866 10.745-1.555 3.181-2.34 6.58-2.335 10.103-.005 3.521.781 6.919 2.334 10.101 2.286 4.681 6.144 8.497 10.843 10.735l42.823 20.517v119.728c0 25.385 21.953 48.484 61.813 65.042 37.074 15.399 86.149 23.881 138.187 23.881 40.064 0 79.271-5.206 112.019-14.757v45.574l-16.033 27.77c-2.762 4.783-1.123 10.898 3.66 13.66 1.575.909 3.294 1.342 4.991 1.342 3.456 0 6.817-1.794 8.669-5.002l14.486-25.091h4.227v26.5c0 5.522 4.477 10 10 10s10-4.478 10-10v-26.5h4.227l14.486 25.091c1.852 3.208 5.213 5.002 8.669 5.002 1.696 0 3.416-.433 4.991-1.342 4.783-2.762 6.422-8.877 3.66-13.66l-16.033-27.77v-57.321c0-4.915-1.196-9.553-3.3-13.651 20.513-14.188 31.281-30.894 31.281-48.768v-119.729l42.801-20.507c4.721-2.248 8.579-6.064 10.864-10.744 1.557-3.189 2.343-6.596 2.334-10.079.008-3.53-.778-6.937-2.334-10.123zm-384.179 217.754c-31.449-13.063-49.486-30.038-49.486-46.572v-15.669c12.435 13.426 30.374 25.58 53.036 35.567 1.312.578 2.68.852 4.027.852 3.842 0 7.507-2.229 9.156-5.971 2.227-5.054-.064-10.956-5.118-13.184-38.636-17.025-60.906-39.73-61.1-62.293 0-.006-.001-.011-.001-.017v-49.431l146.778 70.323c12.11 5.803 22.664 8.703 33.222 8.703 10.555-.001 21.114-2.902 33.222-8.703l98.797-47.335v121.297c-8.617 3.056-15.429 9.943-18.39 18.604-32.259 10.443-72.368 16.18-113.629 16.18-49.465 0-95.816-7.938-130.514-22.351zm282.533 65.847h-20v-50c0-5.514 4.486-10 10-10s10 4.486 10 10zm27.981-112.419c0 11.736-9.315 23.958-26.358 34.763-.533-.225-1.075-.43-1.623-.624v-130.879l27.981-13.407zm55.692-159.756c-.396.812-1.029 1.244-1.512 1.474l-92.161 44.156-100.455-48.129c.933-2.805 1.436-5.76 1.436-8.826 0-18.925-18.888-33.75-43-33.75s-43 14.825-43 33.75 18.888 33.75 43 33.75c11.332 0 21.509-3.275 29.115-8.711l89.76 43.005-94.296 45.178c-18.836 9.025-30.322 9.025-49.159 0l-209.623-100.433c-.461-.22-1.095-.652-1.491-1.465-.204-.418-.307-.855-.306-1.302 0-.015 0-.03 0-.045-.001-.446.102-.884.307-1.303.396-.812 1.028-1.243 1.512-1.474l209.601-100.423c9.418-4.513 16.999-6.77 24.579-6.77 7.581 0 15.162 2.257 24.58 6.77l209.625 100.436c.46.219 1.092.65 1.49 1.464.204.417.306.854.305 1.346.001.446-.102.883-.307 1.302zm-235.692 2.424c-13.554 0-23-7.246-23-13.75s9.446-13.75 23-13.75 23 7.246 23 13.75-9.446 13.75-23 13.75z"/><path d="m175.663 332.348c-5.523 0-10 4.478-10 10s4.477 10 10 10h.007c5.523 0 9.996-4.478 9.996-10s-4.48-10-10.003-10z"/></g></g></svg>