<?xml version="1.0" encoding="UTF-8"?> <svg xmlns="http://www.w3.org/2000/svg" viewBox="0 0 429.63 89.97"> <defs> <style>.cls-1,.cls-2{fill:#fff;}.cls-2{opacity:0.4;}</style> </defs> <title>нти белый</title> <g id="Слой_2" data-name="Слой 2"> <g id="Слой_1-2" data-name="Слой 1"> <path class="cls-1" d="M130.34,87.6a.61.61,0,0,1-.63-.61V78.7h-4.5V87A.61.61,0,0,1,124,87V78.11a.58.58,0,0,1,.57-.57h5.8a.59.59,0,0,1,.6.57V87A.61.61,0,0,1,130.34,87.6Z"></path> <path class="cls-1" d="M136,87.56a2.75,2.75,0,0,1-1.62-.53v2.35a.59.59,0,1,1-1.19,0v-7.1c0-.55-.12-.71-.38-.86a.43.43,0,0,1-.23-.4c0-.36.25-.52.59-.52a1.19,1.19,0,0,1,.72.29,1.46,1.46,0,0,1,.25.33,3,3,0,0,1,1.79-.61c1.8,0,2.54,1,2.54,2.76V84.5C138.47,86.33,137.81,87.56,136,87.56Zm1.26-4.37c0-1.09-.39-1.65-1.5-1.65a2.25,2.25,0,0,0-1.38.56v3.79a2,2,0,0,0,1.42.63c1,0,1.46-.68,1.46-1.84Z"></path> <path class="cls-1" d="M142.68,87.56a2.55,2.55,0,0,1-2.74-2.83V83.33a2.75,2.75,0,1,1,5.49,0v1.41A2.54,2.54,0,0,1,142.68,87.56Zm1.56-4.22c0-1.06-.45-1.73-1.56-1.73s-1.54.67-1.54,1.73v1.39c0,1.06.45,1.73,1.54,1.73s1.56-.67,1.56-1.73Z"></path> <path class="cls-1" d="M150.87,81.8a2.27,2.27,0,0,0-1.18-.27c-1,0-1.6.79-1.6,2v1.11c0,1.22.5,2,1.56,2a2.58,2.58,0,0,0,1.24-.29.48.48,0,0,1,.65.24.52.52,0,0,1-.24.67,3.51,3.51,0,0,1-1.71.4c-1.9,0-2.7-1.28-2.7-3v-1c0-1.66.9-3.07,2.7-3.07a3.39,3.39,0,0,1,1.71.4.5.5,0,0,1-.44.9Z"></path> <path class="cls-1" d="M157,80.57a.52.52,0,0,1,.51.52.52.52,0,0,1-.51.52h-1.62V87a.61.61,0,0,1-.61.59.58.58,0,0,1-.59-.59V81.61h-1.62a.51.51,0,0,1-.51-.52.52.52,0,0,1,.51-.52Z"></path> <path class="cls-1" d="M161.49,87.56a2.75,2.75,0,0,1-1.62-.53v2.35a.59.59,0,1,1-1.19,0v-7.1c0-.55-.12-.71-.38-.86a.43.43,0,0,1-.23-.4c0-.36.25-.52.59-.52a1.19,1.19,0,0,1,.72.29,1.46,1.46,0,0,1,.25.33,3,3,0,0,1,1.79-.61c1.8,0,2.54,1,2.54,2.76V84.5C163.95,86.33,163.29,87.56,161.49,87.56Zm1.26-4.37c0-1.09-.39-1.65-1.5-1.65a2.25,2.25,0,0,0-1.38.56v3.79a2,2,0,0,0,1.42.63c1,0,1.46-.68,1.46-1.84Z"></path> <path class="cls-1" d="M170.45,87.56a1.07,1.07,0,0,1-.7-.29.92.92,0,0,1-.27-.41,2.52,2.52,0,0,1-1.91.7c-1.68,0-2.39-.87-2.39-2v-.11c0-1.13.78-2,2.53-2h1.54v-.34c0-1.09-.26-1.64-1.41-1.64a2.67,2.67,0,0,0-1.39.34.57.57,0,0,1-.29.08.5.5,0,0,1-.24-.94,3.73,3.73,0,0,1,2-.46c1.94,0,2.51.93,2.51,2.73V85.8c0,.55.12.7.38.85a.43.43,0,0,1,.23.41C171.06,87.39,170.81,87.56,170.45,87.56Zm-1.2-3.17h-1.43c-1.15,0-1.45.52-1.45,1.08v.1c0,.59.33,1.08,1.41,1.08a1.32,1.32,0,0,0,1.47-1.45Z"></path> <path class="cls-1" d="M177.64,87a.6.6,0,0,1-1.2,0V84.39h-2.72V87a.58.58,0,0,1-.59.59.61.61,0,0,1-.61-.59V81.12a.62.62,0,0,1,.61-.6.59.59,0,0,1,.59.6v2.24h2.72V81.12a.6.6,0,1,1,1.2,0Z"></path> <path class="cls-1" d="M183.32,81.8a2.27,2.27,0,0,0-1.18-.27c-1,0-1.6.79-1.6,2v1.11c0,1.22.5,2,1.56,2a2.58,2.58,0,0,0,1.24-.29.48.48,0,0,1,.65.24.52.52,0,0,1-.24.67,3.51,3.51,0,0,1-1.71.4c-1.9,0-2.7-1.28-2.7-3v-1c0-1.66.9-3.07,2.7-3.07a3.39,3.39,0,0,1,1.71.4.5.5,0,0,1-.44.9Z"></path> <path class="cls-1" d="M189.44,80.57a.52.52,0,0,1,.5.52.52.52,0,0,1-.5.52h-1.62V87a.61.61,0,0,1-.61.59.58.58,0,0,1-.59-.59V81.61H185a.51.51,0,0,1-.51-.52.52.52,0,0,1,.51-.52Z"></path> <path class="cls-1" d="M191.57,87.48a.6.6,0,0,1-.6-.6V81.16a.59.59,0,0,1,.6-.59h1.9c1.49,0,2.14.8,2.14,1.81v.22a1.38,1.38,0,0,1-.74,1.31,1.53,1.53,0,0,1,1,1.46v.24c0,1.07-.6,1.86-2.18,1.86Zm.59-5.9v1.94h1.11c.8,0,1.16-.33,1.16-.83v-.25c0-.49-.26-.86-1.05-.86Zm0,2.89v2h1.46c.85,0,1.08-.36,1.08-.89v-.23c0-.56-.44-.87-1.19-.87Z"></path> <path class="cls-1" d="M200.08,87.56a2.55,2.55,0,0,1-2.74-2.83V83.33a2.75,2.75,0,1,1,5.49,0v1.41A2.54,2.54,0,0,1,200.08,87.56Zm1.56-4.22c0-1.06-.45-1.73-1.56-1.73s-1.54.67-1.54,1.73v1.39c0,1.06.45,1.73,1.54,1.73s1.56-.67,1.56-1.73Z"></path> <path class="cls-1" d="M209.14,87.48a.6.6,0,0,1-.6-.6V81.16a.59.59,0,0,1,.6-.59H211c1.49,0,2.14.8,2.14,1.81v.22a1.38,1.38,0,0,1-.74,1.31,1.53,1.53,0,0,1,1,1.46v.24c0,1.07-.6,1.86-2.18,1.86Zm.59-5.9v1.94h1.11c.8,0,1.16-.33,1.16-.83v-.25c0-.49-.26-.86-1.05-.86Zm0,2.89v2h1.46c.85,0,1.08-.36,1.08-.89v-.23c0-.56-.44-.87-1.19-.87Z"></path> <path class="cls-1" d="M217.65,87.56a2.55,2.55,0,0,1-2.74-2.83V83.33a2.75,2.75,0,1,1,5.49,0v1.41A2.54,2.54,0,0,1,217.65,87.56Zm1.56-4.22c0-1.06-.45-1.73-1.56-1.73s-1.54.67-1.54,1.73v1.39c0,1.06.45,1.73,1.54,1.73s1.56-.67,1.56-1.73Z"></path> <path class="cls-1" d="M224.72,85.5c0-.78-.56-1.08-1.3-1.09h-.53a.45.45,0,0,1,0-.9h.49c.61,0,1.27-.27,1.27-1a1,1,0,0,0-1.07-1,1.78,1.78,0,0,0-.89.24c-.26.15-.37.31-.6.31a.47.47,0,0,1-.48-.48.52.52,0,0,1,.23-.41,2.45,2.45,0,0,1,1.76-.61,1.86,1.86,0,0,1,2.06,1.88,1.56,1.56,0,0,1-1,1.5,1.59,1.59,0,0,1,1.09,1.67,2.06,2.06,0,0,1-2.31,2,2.61,2.61,0,0,1-1.82-.6.62.62,0,0,1-.2-.44.48.48,0,0,1,.48-.48c.18,0,.27.14.57.31a1.68,1.68,0,0,0,.94.25A1.1,1.1,0,0,0,224.72,85.5Z"></path> <path class="cls-1" d="M233.57,87.07a.54.54,0,0,1-.55.55.56.56,0,0,1-.55-.55V83.15L231,86.4a.56.56,0,0,1-.48.3.52.52,0,0,1-.46-.3l-1.5-3.22v3.89a.55.55,0,0,1-.54.55.56.56,0,0,1-.56-.55v-6a.56.56,0,0,1,.56-.53.52.52,0,0,1,.48.3l2,4.27,2-4.27a.51.51,0,0,1,.48-.3.54.54,0,0,1,.55.53Z"></path> <path class="cls-1" d="M238,87.56a2.55,2.55,0,0,1-2.74-2.83V83.33a2.75,2.75,0,1,1,5.49,0v1.41A2.54,2.54,0,0,1,238,87.56Zm1.56-4.22c0-1.06-.45-1.73-1.56-1.73s-1.54.67-1.54,1.73v1.39c0,1.06.45,1.73,1.54,1.73s1.56-.67,1.56-1.73Z"></path> <path class="cls-1" d="M246.7,83.53h.72l1.94-2.66a.59.59,0,0,1,.53-.33.59.59,0,0,1,.59.57.69.69,0,0,1-.12.37L248.43,84c.68.86,1.34,1.73,2,2.65a.67.67,0,0,1,.11.34.57.57,0,0,1-.59.57.59.59,0,0,1-.53-.33c-.63-.91-1.27-1.82-2-2.68h-.72V87a.61.61,0,0,1-.6.6.6.6,0,0,1-.6-.6v-2.4h-.72c-.68.86-1.32,1.76-1.94,2.68a.62.62,0,0,1-.53.33.57.57,0,0,1-.6-.57.65.65,0,0,1,.11-.34c.61-.91,1.27-1.79,2-2.65l-1.92-2.57a.69.69,0,0,1-.12-.37.59.59,0,0,1,1.12-.25l2,2.66h.71V81.14a.58.58,0,0,1,.6-.59.59.59,0,0,1,.6.59Z"></path> <path class="cls-1" d="M256.78,87a.6.6,0,0,1-1.2,0V84.39h-2.72V87a.58.58,0,0,1-.59.59.61.61,0,0,1-.61-.59V81.12a.62.62,0,0,1,.61-.6.59.59,0,0,1,.59.6v2.24h2.72V81.12a.6.6,0,1,1,1.2,0Z"></path> <path class="cls-1" d="M261.22,87.56a2.55,2.55,0,0,1-2.74-2.83V83.33a2.75,2.75,0,1,1,5.49,0v1.41A2.54,2.54,0,0,1,261.22,87.56Zm1.56-4.22c0-1.06-.45-1.73-1.56-1.73s-1.54.67-1.54,1.73v1.39c0,1.06.45,1.73,1.54,1.73s1.56-.67,1.56-1.73Z"></path> <path class="cls-1" d="M269.71,81.63h-2.85V87a.59.59,0,0,1-.6.59.58.58,0,0,1-.59-.59V81.16a.59.59,0,0,1,.59-.59h3.45a.53.53,0,1,1,0,1.06Z"></path> <path class="cls-1" d="M273.84,87.56a2.55,2.55,0,0,1-2.74-2.83V83.33a2.75,2.75,0,1,1,5.49,0v1.41A2.54,2.54,0,0,1,273.84,87.56Zm1.56-4.22c0-1.06-.45-1.73-1.56-1.73s-1.54.67-1.54,1.73v1.39c0,1.06.45,1.73,1.54,1.73s1.56-.67,1.56-1.73Z"></path> <path class="cls-1" d="M134.91,6.71a1.1,1.1,0,0,1,2.21,0V22.66a1.1,1.1,0,0,1-2.21,0V15.84h-8v6.82a1.1,1.1,0,0,1-1.09,1.09,1.08,1.08,0,0,1-1.07-1.09V6.71a1.08,1.08,0,0,1,1.07-1.09,1.1,1.1,0,0,1,1.09,1.09v7.14h8Z"></path> <path class="cls-1" d="M149.37,23.68a1.91,1.91,0,0,1-1.24-.51,1.62,1.62,0,0,1-.48-.73,4.47,4.47,0,0,1-3.4,1.24c-3,0-4.25-1.55-4.25-3.57v-.19c0-2,1.38-3.49,4.49-3.49h2.74v-.61c0-1.94-.46-2.91-2.5-2.91a4.75,4.75,0,0,0-2.48.61,1,1,0,0,1-.51.15.89.89,0,0,1-.44-1.68,6.65,6.65,0,0,1,3.57-.82c3.45,0,4.46,1.65,4.46,4.85v4.54c0,1,.22,1.24.68,1.51a.77.77,0,0,1,.41.73C150.44,23.39,150,23.68,149.37,23.68ZM147.24,18h-2.55c-2,0-2.57.92-2.57,1.92v.17c0,1,.58,1.92,2.5,1.92a2.34,2.34,0,0,0,2.62-2.57Z"></path> <path class="cls-1" d="M162.67,23.53h-8.59a1,1,0,0,1-1-1V12.22a1.06,1.06,0,0,1,1.09-1,1,1,0,0,1,1,1v9.42h5.17V12.22a1,1,0,0,1,1-1,1,1,0,0,1,1.07,1v9.42h1.19a.9.9,0,0,1,.92.9v4a1,1,0,0,1-.95,1,1,1,0,0,1-1-1Z"></path> <path class="cls-1" d="M168.76,22.66a1.08,1.08,0,1,1-2.16,0V12.22a1.06,1.06,0,0,1,1.09-1,1,1,0,0,1,1.07,1v6.92L174.3,13v-.8a1,1,0,0,1,1.09-1,1,1,0,0,1,1,1V22.66a1.05,1.05,0,0,1-1.07,1.09,1.07,1.07,0,0,1-1.07-1.09V15.77l-5.53,6.09Z"></path> <path class="cls-1" d="M184.37,23.68c-3.45,0-4.88-2.26-4.88-5v-2.5c0-2.77,1.43-5,4.88-5s4.88,2.26,4.88,5v2.5C189.25,21.42,187.84,23.68,184.37,23.68Zm2.77-7.5c0-1.89-.8-3.08-2.77-3.08s-2.74,1.19-2.74,3.08v2.47c0,1.89.8,3.08,2.74,3.08s2.77-1.19,2.77-3.08Z"></path> <path class="cls-1" d="M201.38,22.66a1.07,1.07,0,0,1-2.14,0V18h-4.83v4.61a1,1,0,0,1-1,1,1.08,1.08,0,0,1-1.09-1V12.22a1.1,1.1,0,0,1,1.09-1.07,1.06,1.06,0,0,1,1,1.07v4h4.83v-4a1.07,1.07,0,0,1,2.14,0Z"></path> <path class="cls-1" d="M213.37,23.68a1.9,1.9,0,0,1-1.24-.51,1.59,1.59,0,0,1-.48-.73,4.48,4.48,0,0,1-3.4,1.24c-3,0-4.25-1.55-4.25-3.57v-.19c0-2,1.38-3.49,4.49-3.49h2.74v-.61c0-1.94-.46-2.91-2.5-2.91a4.75,4.75,0,0,0-2.48.61,1,1,0,0,1-.51.15.91.91,0,0,1-.9-.9.9.9,0,0,1,.46-.78,6.65,6.65,0,0,1,3.57-.82c3.45,0,4.46,1.65,4.46,4.85v4.54c0,1,.22,1.24.68,1.51a.77.77,0,0,1,.41.73C214.44,23.39,214,23.68,213.37,23.68ZM211.23,18h-2.55c-2,0-2.57.92-2.57,1.92v.17c0,1,.58,1.92,2.5,1.92a2.34,2.34,0,0,0,2.62-2.57Z"></path> <path class="cls-1" d="M225.41,11.25a1,1,0,0,1,1,1V22.73a1,1,0,0,1-1.09,1,1,1,0,0,1-1-1V13.15h-4.61v2.33a16.45,16.45,0,0,1-1.12,6.77c-.56,1.09-1,1.51-1.67,1.51a1,1,0,0,1-1-1c0-.73.7-1,1.12-2.26a15.84,15.84,0,0,0,.58-5.37V12.22a1,1,0,0,1,1-1Z"></path> <path class="cls-1" d="M229.87,12.27a1,1,0,0,1,1.07-1,1,1,0,0,1,1,1v3.91h2.23c3,0,4.39,1.36,4.39,3.32v.66c0,2-1.12,3.37-4,3.37h-3.69a1,1,0,0,1-1-1ZM232,21.64h2.62c1.53,0,1.89-.66,1.89-1.6V19.6c0-.95-.73-1.5-2.14-1.5H232Z"></path> <path class="cls-1" d="M250.72,22.66a1.07,1.07,0,0,1-2.14,0V18h-4.83v4.61a1,1,0,0,1-1,1,1.08,1.08,0,0,1-1.09-1V12.22a1.1,1.1,0,0,1,1.09-1.07,1.06,1.06,0,0,1,1,1.07v4h4.83v-4a1.07,1.07,0,0,1,2.14,0Z"></path> <path class="cls-1" d="M262.71,23.68a1.91,1.91,0,0,1-1.24-.51,1.62,1.62,0,0,1-.48-.73,4.47,4.47,0,0,1-3.4,1.24c-3,0-4.25-1.55-4.25-3.57v-.19c0-2,1.38-3.49,4.49-3.49h2.74v-.61c0-1.94-.46-2.91-2.5-2.91a4.75,4.75,0,0,0-2.48.61,1,1,0,0,1-.51.15.89.89,0,0,1-.44-1.68,6.65,6.65,0,0,1,3.57-.82c3.45,0,4.46,1.65,4.46,4.85v4.54c0,1,.22,1.24.68,1.51a.77.77,0,0,1,.41.73C263.77,23.39,263.34,23.68,262.71,23.68ZM260.57,18H258c-2,0-2.57.92-2.57,1.92v.17c0,1,.58,1.92,2.5,1.92a2.34,2.34,0,0,0,2.62-2.57Z"></path> <path class="cls-1" d="M274.36,22.68a1.06,1.06,0,0,1-1.09,1,1,1,0,0,1-1-1v-4.1h-1.87a49.22,49.22,0,0,0-2.48,4.54,1,1,0,0,1-1,.61,1,1,0,0,1-1-.95,1.51,1.51,0,0,1,.24-.78c.61-1.16,1.36-2.47,2.14-3.66A3,3,0,0,1,266,15.18V14.5c0-1.65,1.09-3.25,4-3.25h3.25a1.08,1.08,0,0,1,1.09,1.07Zm-2.13-5.8V13.07h-2.14c-1.58,0-2,.85-2,1.53v.68c0,.73.48,1.6,2,1.6Z"></path> <path class="cls-1" d="M131.66,37.94a.93.93,0,0,1,.9.92.92.92,0,0,1-.9.92h-2.89v9.64a1.08,1.08,0,0,1-1.09,1,1,1,0,0,1-1-1V39.78h-2.89a.9.9,0,0,1-.9-.92.92.92,0,0,1,.9-.92Z"></path> <path class="cls-1" d="M142.72,44.73H136.1v.66c0,1.92.82,3.16,2.74,3.16a6,6,0,0,0,3.06-.68.81.81,0,0,1,1.12.48.89.89,0,0,1-.41,1.14,8.17,8.17,0,0,1-3.84.87c-3.49,0-4.78-2.38-4.78-5.15V43c0-2.77,1.38-5.15,4.78-5.15s4.78,2.33,4.78,5.1v1A.8.8,0,0,1,142.72,44.73Zm-1.26-2.11c0-1.87-.68-3.08-2.67-3.08s-2.69,1.24-2.69,3.11v.41h5.36Z"></path> <path class="cls-1" d="M153.62,50.39a1,1,0,0,1-.95-.61,31.48,31.48,0,0,0-2.79-4.2,30.79,30.79,0,0,0-2.82,4.25,1,1,0,0,1-1.94-.41,1.23,1.23,0,0,1,.1-.49,32.91,32.91,0,0,1,3.42-5,29.36,29.36,0,0,1-3.11-4.61,1.23,1.23,0,0,1-.1-.49,1.08,1.08,0,0,1,1.12-1,1,1,0,0,1,1,.58,24,24,0,0,0,2.4,3.81,28.26,28.26,0,0,0,2.5-3.83,1,1,0,0,1,.87-.56,1,1,0,0,1,1.07.95,1.18,1.18,0,0,1-.12.46,30,30,0,0,1-3,4.64,32.71,32.71,0,0,1,3.42,5,1.23,1.23,0,0,1,.1.49A1.1,1.1,0,0,1,153.62,50.39Z"></path> <path class="cls-1" d="M166,49.34a1.07,1.07,0,0,1-2.13,0V44.73h-4.83v4.61a1,1,0,0,1-1,1,1.08,1.08,0,0,1-1.09-1V38.91A1.1,1.1,0,0,1,158,37.84a1.05,1.05,0,0,1,1,1.07v4h4.83v-4a1.07,1.07,0,1,1,2.13,0Z"></path> <path class="cls-1" d="M173.93,50.36c-3.45,0-4.88-2.26-4.88-5v-2.5c0-2.77,1.43-5,4.88-5s4.88,2.26,4.88,5v2.5C178.81,48.11,177.4,50.36,173.93,50.36Zm2.77-7.5c0-1.89-.8-3.08-2.77-3.08s-2.74,1.19-2.74,3.08v2.47c0,1.89.8,3.08,2.74,3.08s2.77-1.19,2.77-3.08Z"></path> <path class="cls-1" d="M190.19,37.94a1,1,0,0,1,1,1V49.42a1,1,0,0,1-1.09,1,1,1,0,0,1-1-1V39.83h-4.61v2.33a16.45,16.45,0,0,1-1.12,6.77c-.56,1.09-1,1.51-1.67,1.51a1,1,0,0,1-1-1c0-.73.7-1,1.12-2.26a15.84,15.84,0,0,0,.58-5.37V38.91a1,1,0,0,1,1-1Z"></path> <path class="cls-1" d="M199.12,50.36a6,6,0,0,1-2-.32l-.41.9a.6.6,0,0,1-.8.29.62.62,0,0,1-.32-.8l.44-.95a4.87,4.87,0,0,1-1.82-4.15v-2.5c0-2.77,1.43-5,4.88-5a6.14,6.14,0,0,1,2,.32l.39-.9a.62.62,0,1,1,1.14.51l-.43.95A4.89,4.89,0,0,1,204,42.84v2.5C204,48.11,202.59,50.36,199.12,50.36Zm0-10.58c-1.94,0-2.74,1.19-2.74,3.08v2.47a2.65,2.65,0,0,0,.65,2L200.31,40A3.54,3.54,0,0,0,199.12,39.78Zm2.77,3.08a2.71,2.71,0,0,0-.66-2L198,48.23a3.47,3.47,0,0,0,1.16.19c2,0,2.77-1.19,2.77-3.08Z"></path> <path class="cls-1" d="M214.24,39.83h-5.07v9.54a1.06,1.06,0,0,1-1.07,1,1,1,0,0,1-1-1V39a1.05,1.05,0,0,1,1-1h6.14a.95.95,0,1,1,0,1.89Z"></path> <path class="cls-1" d="M219.29,49.34a1.08,1.08,0,1,1-2.16,0V38.91a1.06,1.06,0,0,1,1.09-1,1,1,0,0,1,1.07,1v6.92l5.53-6.12v-.8a1,1,0,0,1,1.09-1,1,1,0,0,1,1,1V49.34a1.05,1.05,0,0,1-1.07,1.09,1.07,1.07,0,0,1-1.07-1.09V42.45l-5.53,6.09Z"></path> <path class="cls-1" d="M239.31,49.34a1.07,1.07,0,1,1-2.14,0V45.48a9.85,9.85,0,0,1-2.89.49c-2.53,0-4-1.29-4-3.93V38.91a1.06,1.06,0,0,1,1.07-1,1,1,0,0,1,1.07,1v2.89c0,1.75.92,2.28,2.26,2.28a7.33,7.33,0,0,0,2.45-.44V38.91a1.07,1.07,0,0,1,2.14,0Z"></path> <path class="cls-1" d="M251.08,44.73h-6.63v.66c0,1.92.83,3.16,2.74,3.16a6,6,0,0,0,3.06-.68.81.81,0,0,1,1.12.48.9.9,0,0,1-.41,1.14,8.18,8.18,0,0,1-3.84.87c-3.5,0-4.78-2.38-4.78-5.15V43c0-2.77,1.39-5.15,4.78-5.15s4.78,2.33,4.78,5.1v1A.8.8,0,0,1,251.08,44.73Zm-1.26-2.11c0-1.87-.68-3.08-2.67-3.08s-2.69,1.24-2.69,3.11v.41h5.37Z"></path> <path class="cls-1" d="M261.4,40.12a4,4,0,0,0-2.09-.49c-1.82,0-2.84,1.41-2.84,3.47v2c0,2.16.9,3.47,2.77,3.47a4.6,4.6,0,0,0,2.21-.51.85.85,0,0,1,1.17.44.92.92,0,0,1-.44,1.19,6.25,6.25,0,0,1-3,.7c-3.37,0-4.81-2.28-4.81-5.39v-1.7c0-3,1.6-5.46,4.81-5.46a6,6,0,0,1,3,.7.89.89,0,0,1-.78,1.6Z"></path> <path class="cls-1" d="M267.2,43.15h1.29l3.45-4.73a1.08,1.08,0,0,1,.95-.58,1,1,0,0,1,1,1,1,1,0,0,1-.22.63l-3.4,4.59c1.19,1.53,2.35,3.08,3.45,4.71a1,1,0,0,1,.19.61,1,1,0,0,1-1,1,1.07,1.07,0,0,1-.95-.58c-1.12-1.65-2.23-3.2-3.45-4.76H267.2v4.27a1.08,1.08,0,0,1-1.07,1.07,1.06,1.06,0,0,1-1-1.07V38.91a1,1,0,0,1,1-1,1.06,1.06,0,0,1,1.07,1Z"></path> <path class="cls-1" d="M284.57,50.36a1.9,1.9,0,0,1-1.24-.51,1.61,1.61,0,0,1-.49-.73,4.48,4.48,0,0,1-3.4,1.24c-3,0-4.25-1.55-4.25-3.57V46.6c0-2,1.39-3.49,4.49-3.49h2.74V42.5c0-1.94-.46-2.91-2.5-2.91a4.74,4.74,0,0,0-2.47.61,1,1,0,0,1-.51.15.89.89,0,0,1-.43-1.68,6.64,6.64,0,0,1,3.57-.82c3.45,0,4.47,1.65,4.47,4.85v4.54c0,1,.22,1.24.68,1.51a.77.77,0,0,1,.41.73C285.64,50.07,285.2,50.36,284.57,50.36Zm-2.14-5.63h-2.55c-2,0-2.57.92-2.57,1.92v.17c0,1,.58,1.92,2.5,1.92a2.34,2.34,0,0,0,2.62-2.57Z"></path> <path class="cls-1" d="M296.22,49.37a1.06,1.06,0,0,1-1.09,1,1,1,0,0,1-1-1v-4.1h-1.87a49.19,49.19,0,0,0-2.48,4.54,1,1,0,0,1-1,.61,1,1,0,0,1-1-.95,1.5,1.5,0,0,1,.24-.78c.61-1.16,1.36-2.47,2.13-3.66a3,3,0,0,1-2.23-3.16v-.68c0-1.65,1.09-3.25,4-3.25h3.25A1.08,1.08,0,0,1,296.22,39Zm-2.14-5.8V39.76h-2.13c-1.58,0-2,.85-2,1.53V42c0,.73.48,1.6,2,1.6Z"></path> <path class="cls-1" d="M309,49.34a1.08,1.08,0,1,1-2.16,0V38.91a1.06,1.06,0,0,1,1.09-1,1,1,0,0,1,1.07,1v6.92l5.53-6.12v-.8a1,1,0,0,1,1.09-1,1,1,0,0,1,1,1V49.34a1.05,1.05,0,0,1-1.07,1.09,1.07,1.07,0,0,1-1.07-1.09V42.45L309,48.54Z"></path> <path class="cls-1" d="M329.22,49.34a1.07,1.07,0,0,1-2.13,0V44.73h-4.83v4.61a1,1,0,0,1-1,1,1.08,1.08,0,0,1-1.09-1V38.91a1.1,1.1,0,0,1,1.09-1.07,1.05,1.05,0,0,1,1,1.07v4h4.83v-4a1.07,1.07,0,1,1,2.13,0Z"></path> <path class="cls-1" d="M334.83,49.34a1.08,1.08,0,1,1-2.16,0V38.91a1.06,1.06,0,0,1,1.09-1,1,1,0,0,1,1.07,1v6.92l5.53-6.12v-.8a1,1,0,0,1,1.09-1,1,1,0,0,1,1,1V49.34a1.05,1.05,0,0,1-1.07,1.09,1.07,1.07,0,0,1-1.07-1.09V42.45l-5.53,6.09Z"></path> <path class="cls-1" d="M355.58,50.22H347a1,1,0,0,1-1-1V38.91a1.06,1.06,0,0,1,1.09-1,1,1,0,0,1,1,1v9.42h5.17V38.91a1,1,0,0,1,1-1,1,1,0,0,1,1.07,1v9.42h1.19a.9.9,0,0,1,.92.9v4a1,1,0,0,1-.95,1,1,1,0,0,1-1-1Z"></path> <path class="cls-1" d="M361.67,49.34a1.08,1.08,0,1,1-2.16,0V38.91a1.06,1.06,0,0,1,1.09-1,1,1,0,0,1,1.07,1v6.92l5.53-6.12v-.8a1,1,0,0,1,1.09-1,1,1,0,0,1,1,1V49.34a1.05,1.05,0,0,1-1.07,1.09,1.07,1.07,0,0,1-1.07-1.09V42.45l-5.53,6.09Z"></path> <path class="cls-1" d="M381.35,50.36a1.9,1.9,0,0,1-1.24-.51,1.61,1.61,0,0,1-.49-.73,4.48,4.48,0,0,1-3.4,1.24c-3,0-4.25-1.55-4.25-3.57V46.6c0-2,1.39-3.49,4.49-3.49h2.74V42.5c0-1.94-.46-2.91-2.5-2.91a4.74,4.74,0,0,0-2.47.61,1,1,0,0,1-.51.15.89.89,0,0,1-.43-1.68,6.64,6.64,0,0,1,3.57-.82c3.45,0,4.47,1.65,4.47,4.85v4.54c0,1,.22,1.24.68,1.51a.77.77,0,0,1,.41.73C382.42,50.07,382,50.36,381.35,50.36Zm-2.14-5.63h-2.55c-2,0-2.57.92-2.57,1.92v.17c0,1,.58,1.92,2.5,1.92a2.34,2.34,0,0,0,2.62-2.57Z"></path> <path class="cls-1" d="M392.25,37.94a.93.93,0,0,1,.9.92.92.92,0,0,1-.9.92h-2.89v9.64a1.08,1.08,0,0,1-1.09,1,1,1,0,0,1-1-1V39.78h-2.89a.9.9,0,0,1-.9-.92.92.92,0,0,1,.9-.92Z"></path> <path class="cls-1" d="M397.15,49.34a1.08,1.08,0,1,1-2.16,0V38.91a1.06,1.06,0,0,1,1.09-1,1,1,0,0,1,1.07,1v6.92l5.53-6.12v-.8a1,1,0,0,1,1.09-1,1,1,0,0,1,1,1V49.34a1.05,1.05,0,0,1-1.07,1.09,1.07,1.07,0,0,1-1.07-1.09V42.45l-5.53,6.09Z"></path> <path class="cls-1" d="M409.34,50.22a1.06,1.06,0,0,1-1.07-1.07V39a1.06,1.06,0,0,1,1.07-1h3.37c2.65,0,3.81,1.43,3.81,3.23v.39a2.45,2.45,0,0,1-1.31,2.33,2.72,2.72,0,0,1,1.77,2.6v.44c0,1.89-1.07,3.3-3.88,3.3Zm1-10.48v3.44h2c1.43,0,2.06-.58,2.06-1.48v-.44c0-.87-.46-1.53-1.87-1.53Zm0,5.14v3.54H413c1.5,0,1.92-.63,1.92-1.58v-.41c0-1-.77-1.55-2.11-1.55Z"></path> <path class="cls-1" d="M428.56,50.36a1.9,1.9,0,0,1-1.24-.51,1.61,1.61,0,0,1-.49-.73,4.48,4.48,0,0,1-3.4,1.24c-3,0-4.25-1.55-4.25-3.57V46.6c0-2,1.39-3.49,4.49-3.49h2.74V42.5c0-1.94-.46-2.91-2.5-2.91a4.74,4.74,0,0,0-2.47.61,1,1,0,0,1-.51.15.89.89,0,0,1-.43-1.68,6.64,6.64,0,0,1,3.57-.82c3.45,0,4.47,1.65,4.47,4.85v4.54c0,1,.22,1.24.68,1.51a.77.77,0,0,1,.41.73C429.63,50.07,429.19,50.36,428.56,50.36Zm-2.14-5.63h-2.55c-2,0-2.57.92-2.57,1.92v.17c0,1,.58,1.92,2.5,1.92a2.34,2.34,0,0,0,2.62-2.57Z"></path> <path class="cls-1" d="M156,64.08H123.4c-.05,0-.1,0-.13.14a1.12,1.12,0,0,0,0,.35,1.2,1.2,0,0,0,0,.35c0,.1.08.14.13.14H156Z"></path> <path class="cls-2" d="M207,64.22c0-.09-.07-.14-.13-.14H156v1h50.89c.05,0,.09,0,.13-.14a1.14,1.14,0,0,0,0-.35,1.07,1.07,0,0,0,0-.35"></path> <path class="cls-1" d="M48.83,89h-.08L2.05,75.74a.3.3,0,1,1,.16-.59L48.83,88.35,95.62,75.15a.3.3,0,1,1,.16.59L48.92,89Z"></path> <path class="cls-1" d="M48.83,89h-.08L2.05,75.74a.3.3,0,1,1,.16-.59L48.83,88.35,95.62,75.15a.3.3,0,1,1,.16.59L48.92,89Z"></path> <path class="cls-1" d="M52,80.26h0l-6.67-1.88a.14.14,0,0,1-.1-.17.14.14,0,0,1,.17-.1L52,80a.14.14,0,0,1,0,.28Z"></path> <path class="cls-1" d="M45.33,80.26a.14.14,0,0,1,0-.28L52,78.1a.14.14,0,1,1,.08.27l-6.67,1.88Z"></path> <path class="cls-1" d="M67,76h0l-6.67-1.89a.14.14,0,0,1-.1-.17.15.15,0,0,1,.17-.1L67,75.68A.14.14,0,0,1,67,76Z"></path> <path class="cls-1" d="M68.2,85h0L61.49,83.1a.14.14,0,0,1-.1-.17.14.14,0,0,1,.17-.1l6.67,1.89a.14.14,0,0,1,0,.28Z"></path> <path class="cls-1" d="M83.2,80.69h0l-6.67-1.89a.14.14,0,0,1-.1-.17.14.14,0,0,1,.17-.1l6.67,1.89a.14.14,0,0,1,0,.28Z"></path> <path class="cls-1" d="M60.33,76a.14.14,0,0,1,0-.28L67,73.8a.14.14,0,1,1,.08.27L60.37,76Z"></path> <path class="cls-1" d="M75.06,71.7a.14.14,0,0,1-.14-.1.14.14,0,0,1,.1-.17l3.34-1a.13.13,0,0,1,.18.1.14.14,0,0,1-.1.17l-3.34,1Z"></path> <path class="cls-1" d="M60.45,67.48a.3.3,0,0,1-.09-.6l2.75-.82a.31.31,0,0,1,.38.21.3.3,0,0,1-.21.38l-2.75.82Z"></path> <path class="cls-1" d="M36.93,76h0l-6.67-1.89a.14.14,0,0,1-.1-.17.14.14,0,0,1,.17-.1L37,75.68a.14.14,0,0,1,0,.28Z"></path> <path class="cls-1" d="M30.26,76a.14.14,0,0,1,0-.28l6.67-1.89a.14.14,0,0,1,.17.1.14.14,0,0,1-.1.17L30.3,76Z"></path> <path class="cls-1" d="M51.93,71.65h0l-6.67-1.89a.14.14,0,0,1-.1-.17.14.14,0,0,1,.17-.1L52,71.38a.14.14,0,0,1,0,.28Z"></path> <path class="cls-1" d="M45.27,71.65a.14.14,0,0,1,0-.28l6.67-1.89a.14.14,0,0,1,.17.1.14.14,0,0,1-.1.17L45.3,71.65Z"></path> <path class="cls-1" d="M29.56,85a.14.14,0,0,1,0-.28l6.67-1.89a.14.14,0,0,1,.08.27L29.6,85Z"></path> <path class="cls-1" d="M14.56,80.69a.14.14,0,0,1,0-.28l6.67-1.89a.14.14,0,0,1,.08.27L14.6,80.69Z"></path> <path class="cls-1" d="M23.15,71.82h0l-3.73-1.1a.14.14,0,1,1,.08-.27l3.73,1.1a.14.14,0,0,1,.1.17A.14.14,0,0,1,23.15,71.82Z"></path> <path class="cls-1" d="M37.8,67.45h0l-3.33-1a.14.14,0,1,1,.08-.27l3.33,1a.14.14,0,0,1,.1.17A.14.14,0,0,1,37.8,67.45Z"></path> <path class="cls-1" d="M2.13,36.26A.31.31,0,0,1,1.83,36V16.52H.31a.31.31,0,0,1,0-.61H2.13a.31.31,0,0,1,.31.31V36A.31.31,0,0,1,2.13,36.26Z"></path> <path class="cls-1" d="M2.13,56a.31.31,0,0,1-.31-.31V36.26H.31a.31.31,0,0,1,0-.61H2.13a.31.31,0,0,1,.31.31V55.69A.31.31,0,0,1,2.13,56Z"></path> <path class="cls-1" d="M2.13,75.75a.31.31,0,0,1-.31-.31V56H.31a.31.31,0,1,1,0-.61H2.13a.31.31,0,0,1,.31.31V75.45A.31.31,0,0,1,2.13,75.75Z"></path> <path class="cls-1" d="M54.81,77.53a.35.35,0,0,1-.13-.67c.26-.11.76-.34,1-.46l1.13-.61c.33-.19,1-.58,1.29-.79s1.1-.75,1.46-1,1.26-1,1.64-1.31l.57-.5a.35.35,0,1,1,.46.51l-.59.52c-.39.33-1.23,1-1.68,1.34s-1.1.78-1.49,1-1,.61-1.32.81L56,77c-.26.13-.78.37-1,.48Zm8.46-5.93A.35.35,0,0,1,63,71l0,0c.26-.24.75-.74,1-1l1-1.13,1.11-1.28c.29-.35.87-1.07,1.16-1.43s.72-1,1-1.39l.16-.22a.39.39,0,0,1,.51-.11.31.31,0,0,1,.1.45l-.05.07-.16.22c-.33.43-.79,1.06-1.06,1.4S67,67.68,66.71,68L65.6,69.32l-1.06,1.15c-.25.26-.76.78-1,1l0,0A.35.35,0,0,1,63.27,71.6Zm-7.72-3.85h-.22l-.43,0-.16,0-.21,0-.28-.07-.12,0-.32-.1a3.47,3.47,0,0,1-.4-.16l-.31-.15L52.8,67l-.27-.19-.28-.22L52,66.35l-.23-.23-.22-.25c0-.05-.16-.2-.21-.26l-.21-.3a.34.34,0,0,1-.05-.18h.34l.28-.2,0,0,.14.19.21.27.2.23.22.22.17.16.28.22.23.16.2.12.08,0,.25.12.29.12.31.1.11,0,.26.06.18,0L55,67l.38,0h.38l.41,0,.46-.06.47-.09.5-.13.54-.18.56-.22L59,66.2a.35.35,0,0,1,.29.63l-.33.15-.6.24-.57.19-.54.15-.52.1-.5.07-.47,0ZM60.64,66a.35.35,0,0,1-.18-.64l.08,0,.53-.35.18-.12.72-.53c.2-.15.58-.46.77-.62s.61-.52.8-.7.64-.6.84-.81.67-.68.89-.91l.11-.13c.24-.27.6-.67.78-.89l.56-.65a.34.34,0,0,1,.49,0,.35.35,0,0,1,0,.49l-.57.66c-.18.22-.54.62-.79.9l-.12.13c-.23.24-.68.71-.91.93s-.64.61-.86.82-.61.55-.82.72-.59.49-.79.64l-.74.55-.2.13-.55.36-.08.05A.34.34,0,0,1,60.64,66ZM38.45,64.5H38a.34.34,0,0,1-.33-.36.34.34,0,0,1,.18-.29l-.32,0-.5-.07-.53-.11-.16,0-.41-.13-.58-.21L34.74,63l-.63-.32-.66-.39-.34-.22a.35.35,0,1,1,.38-.58l.33.21.62.37.6.31.57.25.54.19.39.12.14,0,.48.1.44.06.47,0h.38l.38,0,.37-.07.33-.09.32-.12.26-.12.11-.06.21-.13.27-.18a2.74,2.74,0,0,0,.26-.21L41,62a.35.35,0,0,1,.56.37l.18-.19.07-.08.14-.18c.06-.08.16-.21.2-.28l.2-.31v0a.39.39,0,0,1-.15,0,.37.37,0,0,1-.23-.46.45.45,0,0,1,.07-.14l0-.05.12-.22c.07-.12.15-.28.2-.37l.33-.74.09-.24.19-.55c0-.1.1-.32.12-.42s.09-.34.12-.44l.23-1c0-.26.12-.68.15-.9s.1-.79.12-1.06.08-.84.09-1.12,0-.67,0-1a.34.34,0,0,1,.35-.34h0a.35.35,0,0,1,.34.35c0,.32,0,.76,0,1s-.06.86-.09,1.15v.15l0-.12c0-.19.09-.48.14-.74l.3-1.64c.05-.32.17-1,.23-1.29s.19-1,.25-1.36l.09-.42a.35.35,0,0,1,.41-.27.35.35,0,0,1,.27.41l-.09.42c-.06.33-.19,1-.25,1.34s-.18,1-.23,1.28l-.3,1.65c0,.27-.1.56-.14.74s-.16.82-.22,1.09-.16.78-.23,1-.17.71-.25,1a.34.34,0,0,1-.43.23.35.35,0,0,1-.15-.09l-.05.18c0,.09-.09.32-.13.43l-.2.58-.08.23h.2l.31.16,0,.09-.17.41c0,.08-.12.29-.17.39l-.1.22-.26.51-.23.38-.21.32-.23.32-.16.2-.07.09-.28.3a3.51,3.51,0,0,1-.28.27l-.1.09-.14.13-.33.24-.33.2-.35.18-.37.15-.38.12-.34.08-.09,0-.39.06-.45,0ZM40.86,63l-.07,0-.25.15-.1.05-.35.16-.31.12-.46.14-.15,0,.39-.08.3-.1.34-.14.29-.15.3-.18Zm9.76.88a.35.35,0,0,1-.31-.19,3.26,3.26,0,0,1-.15-.37l-.08-.21L50,62.89l-.08-.25c0-.1-.08-.28-.11-.37s-.17-.61-.22-.82-.14-.62-.19-.84l-.33-1.84L49,58.06l0-.28c0-.16,0-.39-.08-.6l-.06-.44c0-.27-.11-.83-.14-1.11,0-.11,0-.28-.06-.47a.35.35,0,0,1,.3-.39.33.33,0,0,1,.39.3c0,.18,0,.35.06.46,0,.29.1.83.14,1.1l.06.44c0,.22.06.46.08.61l0,.26c0,.24.08.53.11.7l.33,1.81c0,.2.13.62.18.82s.15.59.2.78l.12.38.07.22.09.26.07.2a3,3,0,0,0,.12.29.35.35,0,0,1-.15.47A.36.36,0,0,1,50.62,63.93Zm19.26-.31a.35.35,0,0,1-.28-.55l.21-.3c.33-.49,1-1.49,1.3-2s1-1.64,1.35-2.2,1-1.81,1.38-2.42l.23-.41.63.3-.25.45c-.34.6-1,1.83-1.39,2.43s-1,1.67-1.36,2.22-1,1.5-1.31,2l-.22.31A.35.35,0,0,1,69.88,63.62Zm-12.65-.47-.47,0-.43-.06-.4-.08-.1,0-.31-.1-.34-.14-.39-.19-.28-.17-.36-.26-.31-.26-.18-.17-.1-.09-.27-.31-.16-.19L53,60.95l0-.07-.2-.29-.21-.33-.21-.38-.16-.31a.35.35,0,0,1,.62-.31l.15.29.2.35.2.3.19.27.12.15.13.16.25.28.09.08.16.15.27.23.27.2.27.17.29.15.35.14.27.09.42.09.37,0,.41,0,.41,0,.46-.05.47-.1.5-.14.49-.17a.35.35,0,1,1,.23.65l-.51.17-.48.14-.58.12-.51.06Zm4-1.25a.35.35,0,0,1-.18-.64l.32-.19.65-.42.68-.5.72-.58.73-.65c.19-.18.58-.55.76-.74s.61-.63.8-.84.62-.7.83-.94l.74-.9a.35.35,0,1,1,.54.43l-.75.92c-.21.24-.62.72-.84,1s-.6.64-.82.86-.58.57-.78.76l-.76.67-.74.59-.71.52-.67.44-.34.2A.34.34,0,0,1,61.23,61.9Zm-23.75-.12h-.34l-.48,0-.52-.09-.53-.13L35,61.32l-.58-.24.29-.63.53.22.52.18.47.12.47.08.42,0h.43L38,61l.36-.06.35-.09.32-.12.31-.15.3-.17.09-.06.18-.13.18-.15L40.2,60l.12-.12.11-.11.23-.26a2.92,2.92,0,0,0,.23-.28l.22-.32c.05-.08.15-.23.19-.31s.16-.28.2-.36a.39.39,0,0,1,.49-.2.31.31,0,0,1,.18.42l-.31-.15.31.16-.05.1c0,.08-.15.28-.2.37s-.15.26-.21.35l-.23.33a3.73,3.73,0,0,1-.27.34l-.25.28-.14.14-.13.13-.14.12-.21.17-.2.15L40,61l-.37.21-.36.17-.38.14-.4.11-.38.07-.49,0Zm-5.58-.69a.35.35,0,0,1-.22-.08l-.39-.32-.6-.53L30.52,60l-.81-.79c-.21-.22-.63-.66-.83-.88s-.65-.73-.86-1-.66-.81-.88-1.08-.68-.89-.9-1.2l-.39-.55a.35.35,0,0,1,.57-.4l.38.54c.22.3.66.89.89,1.18s.64.81.87,1.07.63.72.84,1,.6.65.81.86l.79.77.17.15.58.51.39.32a.35.35,0,0,1-.22.61Zm1.18-.81a.34.34,0,0,1-.19-.05L32.56,60l-.68-.49-.71-.57-.73-.65-.76-.72L29.15,57l-.26-.28-.81-.92c-.21-.25-.63-.76-.83-1l-.56-.74a.35.35,0,1,1,.56-.41l.55.73c.2.25.6.75.81,1l.79.89.26.27.5.53.74.71.71.63.69.55.65.47.32.21a.35.35,0,0,1-.19.64Zm35-1.43a.34.34,0,0,1-.21-.07.35.35,0,0,1-.07-.49l.31-.41c.27-.35.77-1.05,1-1.41l.59-.87.46-.68c.26-.41.79-1.26,1-1.69s.82-1.38,1.07-1.84l.18-.33a.35.35,0,0,1,.61.34l-.18.33c-.25.47-.8,1.4-1.08,1.86S71,54.87,70.73,55.3l-.46.68-.59.88c-.25.36-.76,1.08-1,1.43l-.31.42A.35.35,0,0,1,68.06,58.84Zm-16.21-.68a.35.35,0,0,1-.33-.23l-.05-.16-.21-.65c0-.1-.06-.2-.08-.27L51,56.34l-.16-.6-.11-.42c-.07-.27-.18-.79-.24-1.07s-.1-.45-.15-.69L50.28,53c-.06-.31-.18-.92-.25-1.22s-.19-1-.26-1.31l-.22-1a.35.35,0,0,1,.27-.41.35.35,0,0,1,.41.27c.07.35.17.8.22,1.06s.19,1,.26,1.31.19.91.25,1.23l.11.51c0,.24.1.48.14.64.07.32.18.83.24,1.09l.11.42.16.6.13.49.08.27.25.77a.35.35,0,0,1-.21.44Zm-16.08-1.1-.48,0L34.82,57l-.5-.12-.52-.18-.54-.23a.38.38,0,0,1-.2-.47.32.32,0,0,1,.42-.19l.08,0L34,56l.48.17.44.1.43.07.4,0h.39l.35,0,.34-.08.35-.11.08,0,.21-.1.3-.17a2.47,2.47,0,0,0,.28-.19l.3-.24.22-.22a3.48,3.48,0,0,0,.28-.31l.18-.22.08-.11.22-.32.22-.36.14-.24.15-.28.13-.26a.36.36,0,0,1,.45-.18.34.34,0,0,1,.19.44l0,0-.13.28-.16.31-.15.26-.24.38-.25.36-.09.12-.18.23c-.05.07-.21.24-.29.32l-.29.28-.33.27a3.13,3.13,0,0,1-.34.23l-.35.2-.24.12-.1,0-.43.14-.39.09-.39.05Zm6.72,0h-.1a.35.35,0,0,1-.23-.43l.28-1c0-.1,0-.21.06-.28l.09-.45c0-.19.08-.44.09-.56s.06-.4.07-.52c0-.29.09-.84.11-1.12s0-.88,0-1.18v-.35c0-.31,0-.69,0-.9v-.08c0-.35,0-.93-.07-1.23l-.07-.71a.34.34,0,0,1,.31-.38.36.36,0,0,1,.38.31l.07.72c0,.31.06.91.08,1.26v.09c0,.23,0,.61,0,.93v.36c0,.3,0,.91,0,1.22s-.08.86-.12,1.15c0,.13,0,.42-.07.56s-.06.4-.09.54l-.1.5-.07.3-.29,1.09A.35.35,0,0,1,42.49,57.06ZM35.41,56,35,56l-.48-.08L34,55.76c-.15,0-.41-.14-.53-.19l-.5-.21-.54-.28-.56-.33-.09-.06-.37-.25a.35.35,0,0,1,.4-.57l.36.25.09.06.52.31.49.25.47.2c.13.06.35.13.47.17l.42.1.37.06.42,0h.37l.34,0,.33-.08.3-.11.31-.14.24-.15.29-.21.26-.24.21-.24.23-.29.2-.3.2-.34a.35.35,0,1,1,.6.35l-.21.36-.23.35-.25.31-.25.28-.31.28-.33.25-.33.2-.37.17-.37.13-.41.1-.4.05Zm-3.76-.49.2-.28-.23.26-.21-.15-.49-.37-.62-.53-.66-.6-.49-.49L29,53.16l-.68-.75-.7-.83-.3-.38-.4-.52-.71-1L25.75,49a.35.35,0,0,1,.1-.48.36.36,0,0,1,.14-.05l-.46-.7-.33-.52-.08.1-.3.17.3-.17-.33.12c-.22-.35-.57-1-.74-1.28s-.54-1-.71-1.3-.53-1-.7-1.39L22.36,43l-.08-.17c-.09-.18-.26-.55-.34-.74-.17-.37-.49-1.13-.65-1.51L21,39.91l0-.1a.36.36,0,0,1,.18-.47l.1,0L21,38.73l-.16-.42-.08,0a.34.34,0,0,1-.44-.21l-.53-1.55c-.07-.2-.21-.62-.27-.82l-.21-.69,0-.13-.24-.83-.77-3.26-.2-1.13a.35.35,0,0,1,.29-.4.33.33,0,0,1,.19,0c0-.15,0-.31,0-.41s-.05-.44-.07-.63,0-.1,0-.15a.31.31,0,0,1-.2.11.31.31,0,0,1-.38-.26v-.08l0-.48c0-.15,0-.31,0-.4s0-.51,0-.69,0-.54,0-.71v-.19c0-.16,0-.36,0-.47s0-.47,0-.62,0-.45.07-.6.06-.42.1-.56.09-.4.12-.53l.05-.16.1-.32c0-.12.14-.35.19-.46s.16-.31.22-.41l.24-.36c.09-.11.22-.27.29-.34a3.11,3.11,0,0,1,.33-.29,2.42,2.42,0,0,1,.34-.23,3.09,3.09,0,0,1,.37-.18l.13,0a.35.35,0,0,1,.21.66l-.09,0-.28.14a1.82,1.82,0,0,0-.25.17,2.55,2.55,0,0,0-.27.24c-.06.06-.17.19-.23.26l-.2.31c-.05.08-.14.26-.18.35s-.13.3-.16.4l-.09.29-.05.16c0,.11-.08.35-.11.47s-.07.38-.09.5-.06.43-.07.57,0,.46,0,.61,0,.29,0,.44v.19c0,.16,0,.49,0,.65s0,.1,0,.15a.35.35,0,0,1,.26-.13c.2,0,.35.15.35.34v.26c0,.15,0,.47,0,.63s0,.5,0,.66,0,.51.07.66.07.53.09.7.05.36.08.54l0,.18c0,.18.09.54.12.72s.11.56.15.75.13.55.17.74l.19.75c0,.18.14.55.19.74l.14.54.06.23.1.31a.35.35,0,0,1-.23.43h-.1l0,.07c.06.2.19.59.26.79l0,.15.08,0a.35.35,0,0,1,.44.22l.1.3.26.75.11.3.16.43c.14.37.43,1.09.58,1.45l.16.39.14.34.3.68c.16.34.46,1,.63,1.36l.13.26.2.39.33.64.25.48.07.12a.35.35,0,0,1-.14.47l-.1,0,.45.81.07.13L24.8,46a.35.35,0,0,1,.47.13l.16.28c.16.27.5.81.67,1.08s.49.75.66,1,.5.7.66.93.48.64.65.85.48.58.64.77l.64.71.13.13c.16.16.36.37.48.48l.52.5a.34.34,0,0,1,0,.49.36.36,0,0,1-.31.11l.54.49.6.51.47.36.19.14Zm43.55-.8a.35.35,0,0,1-.31-.51l.35-.68c.36-.72,1.06-2.15,1.42-2.88l.21-.46.5-1.09.18-.41.52-1.18c.12-.27.31-.72.48-1.11a.35.35,0,0,1,.64.27l-.48,1.12L78.19,49l-.18.41-.51,1.09-.21.45c-.37.75-1.07,2.19-1.44,2.91l-.35.69A.35.35,0,0,1,75.19,54.7Zm-6.6,0a.35.35,0,0,1-.28-.55c.24-.33.63-.89.83-1.19s.69-1,.91-1.38.69-1.12.91-1.5.53-.91.76-1.33l.16-.29.87-1.66a.35.35,0,1,1,.61.32l-.88,1.67-.16.29c-.24.43-.58,1-.78,1.35s-.68,1.14-.92,1.52-.69,1.06-.92,1.4-.6.87-.84,1.2A.35.35,0,0,1,68.59,54.67Zm-19.9-1a.3.3,0,0,1-.32-.26v-.09l-.08-.6c0-.28-.08-.58-.11-.77,0-.34-.14-1-.2-1.34s-.18-1.06-.24-1.41-.22-1.12-.3-1.49-.27-1.17-.38-1.55L47,46c-.1.36-.2.76-.26,1s-.13.52-.2.83a.35.35,0,0,1-.68-.16c.07-.31.15-.64.21-.84.1-.4.32-1.21.44-1.61s.41-1.28.56-1.71c.09-.27.25-.7.41-1.11-.19-.46-.43-1-.58-1.35s-.4-.84-.62-1.29a.35.35,0,0,1,.62-.31c.23.46.48,1,.63,1.31s.2.45.32.73c.22-.52.57-1.29.77-1.69l.16-.32a.36.36,0,0,1,.47-.16.34.34,0,0,1,.16.46l-.16.33c-.22.45-.65,1.39-.84,1.87l-.17.43.08.21c.17.43.48,1.3.62,1.75s.39,1.23.5,1.64.31,1.16.4,1.55a.39.39,0,0,1-.24.47.3.3,0,0,1-.41-.2l0-.1c-.09-.38-.29-1.15-.4-1.53s-.36-1.21-.49-1.61-.27-.78-.42-1.2l-.13.37c-.1.25-.23.66-.35,1l0,.06c.12.41.26.91.34,1.2s.29,1.17.38,1.57.23,1.14.3,1.52.19,1.07.24,1.42.16,1,.2,1.36c0,.18.07.49.11.77l.08.6a.39.39,0,0,1-.29.43Zm-23.52-.48a.35.35,0,0,1-.29-.16l-.5-.77c-.24-.38-.72-1.16-1-1.55l-1-1.69-.48-.9c-.12-.22-.36-.69-.48-.92-.22-.43-.62-1.26-.87-1.77a.35.35,0,1,1,.62-.3c.25.51.65,1.33.87,1.76l.47.91.47.89c.23.42.7,1.26.94,1.67s.7,1.16.94,1.54l.49.76a.35.35,0,0,1-.29.54Zm.79-.42a.34.34,0,0,1-.29-.15l-.12-.17c-.22-.33-.67-1-.87-1.33l-.62-1-.27-.44-.89-1.55-.44-.82L22.27,47,22,46.49c-.17-.33-.46-.92-.68-1.38a.35.35,0,1,1,.62-.3c.22.45.51,1,.68,1.37l.25.48.19.36.43.81,1.14,2,.61,1c.21.33.64,1,.86,1.31l.12.18a.35.35,0,0,1-.09.48A.34.34,0,0,1,26,52.81Zm8.35-.5-.39,0-.42-.06-.42-.1L32.65,52l-.47-.2-.46-.24-.47-.28c-.13-.08-.38-.26-.49-.35l-.49-.38-.51-.44-.29-.27a.35.35,0,0,1,.48-.5l.28.26.48.42.47.36.45.32.43.25.43.23.4.17.4.13.36.09.34,0h.33l.3,0,.29,0,.27-.08.26-.11.25-.14.22-.16.6-.65.2-.31a.36.36,0,0,1,.48-.12.33.33,0,0,1,.12.46h0l-.22.34-.07.11-.38.44-.17.16-.12.1-.28.21-.31.18-.34.15-.34.1-.37.06-.38,0Zm5.33-.25a.35.35,0,0,1-.31-.5l.19-.89c0-.11.06-.35.08-.48s0-.38.06-.51l.06-.77c0-.11,0-.23,0-.3s0-.44,0-.58,0-.44,0-.58l0-.61c0-.15,0-.46-.06-.62s-.06-.48-.08-.64-.08-.51-.1-.67l-.13-.68c0-.08-.06-.24-.09-.4l-.07-.29c0-.09,0-.2-.08-.31a.35.35,0,0,1,.24-.42.34.34,0,0,1,.43.24c0,.13.07.25.09.34l.07.29c0,.15.07.3.09.39l.14.71c0,.18.08.52.11.69s.07.5.09.66,0,.48.06.64l0,.63c0,.16,0,.46,0,.62s0,.45,0,.6,0,.19,0,.31l-.06.81c0,.13,0,.4-.06.54s-.06.38-.08.51l-.22,1a.49.49,0,0,1,0,.1A.35.35,0,0,1,39.63,52.05ZM41,51.94l-.12,0a.35.35,0,0,1-.2-.45l.1-.28.18-.54.18-.54c0-.13.12-.43.17-.57s.27-.9.36-1.2.28-1,.39-1.3l.36-1.19c-.08-.41-.23-1-.31-1.35s-.34-1.21-.47-1.61-.44-1.27-.61-1.69c-.09-.22-.27-.65-.36-.87s-.3-.67-.4-.89-.33-.69-.45-.91A.39.39,0,0,1,39.9,38a.32.32,0,0,1,.4,0L40,37.54l-.47-.82a.35.35,0,0,1-.17.33.34.34,0,0,1-.47-.13l-.17-.29-.48-.79-.08.11-.07.11c-.11.15-.32.46-.42.62l-.33.52.39.74.16.32.24.5.07.15.29.66c.08.19.25.59.32.79s.22.57.29.77l.07.23-.65.23c0-.11-.06-.19-.08-.25l-.28-.73c-.07-.2-.23-.58-.31-.77l-.29-.65-.06-.14-.24-.48-.15-.32L37,37.92l-.23.47-.26.54,0,.08c-.06.14-.14.33-.19.43s-.13.34-.17.46-.14.36-.18.47l-.1.28c0,.14.11.35.15.47s.12.42.15.56.08.31.11.45a.35.35,0,0,1-.26.41.34.34,0,0,1-.41-.26c0-.14-.08-.33-.11-.43l0-.08a.34.34,0,0,1-.35.13l0,.16.14,1.06c0,.12,0,.3,0,.4v.41c0,.06,0,.17,0,.26v.12c0,.1,0,.27,0,.36l-.13.7,0,.08a.49.49,0,0,1,0,.1l-.05.16h-.36l.33.1a.41.41,0,0,1-.45.29c-.18-.05-.31-.19-.26-.37a1.69,1.69,0,0,1,.06-.16l0-.08,0-.1,0-.07h0v0l.13-.68c0-.08,0-.24,0-.32V44.1l-.2.36-.05.08a1,1,0,0,1-.12.19l-.65.73-.82.42-.66.08-.28,0-.31-.07-.18,0-.11,0-.67-.31-.21-.13L30,45.16l-.31-.23-.23-.2-.07-.07a4.08,4.08,0,0,1-.33-.32l-.29-.28-.27-.31-.15-.18-.2-.24L27.94,43a.35.35,0,1,1,.56-.41l.22.29.2.25.09.11.28.32.24.24.08.08a2.64,2.64,0,0,0,.25.24l.08.07.2.17.28.21.26.17.19.12.58.27.2.05.2,0,.24,0,.78-.19.67-.62.07-.1.35.11-.29-.19a.92.92,0,0,1,.09-.14L33.8,44l.13-.25.06-.13.08-.16.11-.28.06-.16a.35.35,0,0,1,.26-.21l-.1-.68,0-.22c0-.07,0-.2-.07-.31L34.16,41c0-.1-.1-.32-.13-.43s-.11-.34-.15-.45-.09-.28-.14-.39l0-.11-.09-.22-.1-.24c0-.12-.14-.31-.19-.43l-.26-.54-.15-.28-.1-.19a.38.38,0,0,1,.12-.5.32.32,0,0,1,.45.11l0,.07.1.19.15.29.24.52c.08.18.18.39.22.5l.1.25.14.35c.05.14.11.31.14.41a4.24,4.24,0,0,1,.16.46c0,.1.11.34.14.47l.07.28L35,41c0-.07.08-.25.13-.38l-.15-.43-.22-.56-.24-.56c-.06-.15-.2-.44-.26-.58l-.28-.57c-.07-.15-.23-.43-.31-.57l-.33-.59-.44-.7-.28-.43-.39-.56-.3-.41a.35.35,0,1,1,.55-.42l.31.42.4.57.3.45.45.72.34.6c.09.15.25.45.33.61l.06.13.22.45c.07.15.21.45.27.6l.25.58.09.23c0-.12.13-.34.18-.46l.13-.29a.34.34,0,0,1-.14-.15l-.3-.61c-.09-.18-.27-.52-.36-.69s-.29-.52-.39-.68-.32-.54-.42-.71l-.44-.68c-.11-.18-.35-.52-.48-.69l-.37-.51-.28-.37-.37-.47-.42-.51-.13-.15L31.1,32l-.3-.32a.35.35,0,1,1,.5-.48l.31.33.57.65.13.15.43.52.38.48.29.38.37.52c.12.17.37.53.49.71l.45.7c.11.18.32.53.43.72s.3.52.4.7.29.53.37.71l.17.33,0,0c.06-.13.2-.42.28-.56l.19-.33-.32-.56-.55-.9c-.14-.22-.36-.56-.48-.74l-.39-.58-.25-.36a.35.35,0,1,1,.57-.4l.25.36.39.58c.12.17.35.53.49.76l.56.92.13.23.13-.2c.11-.17.33-.5.44-.66l.07-.1.24-.33L37.7,35l-.18-.27-.69-1-.74-1-.74-1L35,31.36l-.58-.69L33.89,30a.35.35,0,0,1,0-.49.43.43,0,0,1,.24-.08L34,29.26l-.69-.76a.34.34,0,0,1-.11.22.35.35,0,0,1-.49,0l-.07-.07-.32-.33-.63-.64-1-1-.5-.46-2-1.72-.31-.25-.7-.52-.48-.34-.45-.3a.35.35,0,0,1-.1-.48.34.34,0,0,1,.39-.14l-.11-.07-.35-.24-.52-.33-.41-.24L25,21.56l-.49-.26-.5-.24-.49-.21-.46-.17-.45-.13-.42-.09-.16,0a.35.35,0,1,1,.11-.68l.16,0,.47.1.49.14.51.19.52.22.52.25.5.26.16.09.41.24.55.35.35.24L27,22l.56.39.54.4.57.45.55.45.5.42a.35.35,0,0,1-.23.61l.95.82a.35.35,0,0,1,.09-.25.34.34,0,0,1,.49,0l.4.37.53.51.53.52.86.88.17.17,1,1.08.94,1.08c.23.27.68.81.9,1.08l.57.72a.35.35,0,0,1-.34.55l0,0,.74,1a.34.34,0,0,1,.13-.27.33.33,0,0,1,.47,0l.06.1c.13.17.43.6.62.88l.05.08L39,33.8a.35.35,0,1,1,.52.45l-.38.44,0,0,.18.28.12.18.63,1,.58,1c.13.25.4.74.52,1s.32.64.45.89.36.76.46,1l.21.5a.38.38,0,0,1-.17.49.32.32,0,0,1-.44-.15l-.23-.56c-.1-.22-.31-.68-.42-.91L40.77,39l.08.17c.11.23.32.68.42.92s.28.66.37.89c.17.42.48,1.29.62,1.73s.37,1.24.48,1.65l.06.24.06-.18-.16-.57c-.1-.32-.27-.88-.42-1.31a.35.35,0,0,1,.65-.23c.11.32.23.7.33,1l0-.06a.35.35,0,0,1,.65.24c-.13.33-.26.69-.34.92v0c.08.31.17.64.22.86.09.39.26,1.17.33,1.56s.18,1.12.22,1.5.12,1.05.15,1.41.05.74.07,1.1a.35.35,0,0,1-.33.36.32.32,0,0,1-.36-.33c0-.35,0-.81-.07-1.07s-.09-1-.14-1.38-.15-1.1-.22-1.47-.19-.92-.28-1.33l-.07.22v0h0c0,.12.06.28.09.46a.35.35,0,0,1-.28.4h-.09l-.14.47c-.1.33-.29,1-.38,1.29s-.28.91-.36,1.21-.14.43-.17.57l-.18.57c-.05.14-.14.39-.18.53l-.11.31A.34.34,0,0,1,41,51.94Zm32.93-2.13-.34-.1-.27-.22,0-.1c.14-.26.41-.78.53-1s.41-.82.54-1.09c.28-.57.81-1.72,1.08-2.3L76,43.79l.86-2.07a.35.35,0,1,1,.64.26l-.84,2-.54,1.21c-.27.59-.81,1.75-1.09,2.32-.13.28-.4.83-.54,1.1s-.4.8-.54,1.07Zm-.34-.1h0ZM33.4,49.64H33l-.35-.05-.38-.09-.38-.13-.38-.17-.11-.05a.35.35,0,0,1,.33-.61l.09,0,.34.15.32.11.3.07.24,0h.12a2.65,2.65,0,0,0,.38,0l.33-.05.23-.08.68-.46.08-.09.08-.09.11-.15,0-.08.05-.07.06-.11.37,0-.31-.15,0-.09.1-.25c0-.08.07-.17.09-.25s.09-.3.11-.38.06-.25.08-.34,0-.29.06-.38l0-.39c0-.1,0-.3,0-.4s0-.2,0-.31v-.1c0-.1,0-.21,0-.32l0-.5a.35.35,0,0,1,.32-.37.36.36,0,0,1,.37.32l0,.53c0,.11,0,.24,0,.33v.12c0,.11,0,.25,0,.33s0,.33,0,.44l0,.41c0,.11,0,.31-.07.41s-.06.3-.09.39-.07.26-.1.35l0,.09c0,.09-.07.21-.1.28s-.09.23-.13.31l0,.08-.14.25h0l-.08.13-.36-.08.29.18-.14.18-.1.12L35,48.58l.26.23-.79.57-.14.06-.31.1-.44.08ZM37.6,49h-.08a.35.35,0,0,1-.25-.42c0-.07,0-.14,0-.19s.07-.33.08-.44,0-.19,0-.29l0-.3c0-.11,0-.23,0-.3s0-.36,0-.48,0-.17,0-.26V46c0-.13,0-.38,0-.51s0-.41,0-.54,0-.32-.05-.46v-.1c0-.09,0-.25-.06-.39l0-.18c0-.16-.08-.44-.11-.59L36.87,42c0-.15-.13-.46-.18-.62l-.22-.65c0-.13-.12-.33-.18-.49a.35.35,0,1,1,.65-.25c.07.17.14.38.19.51l.12.34.1.31c.06.17.15.5.2.66l.32,1.26c0,.16.1.47.12.64l0,.17c0,.14.05.31.07.41v.11c0,.15,0,.36.05.48s0,.42,0,.56,0,.42,0,.56v.26c0,.1,0,.21,0,.28s0,.37,0,.51,0,.21,0,.34l0,.31c0,.12,0,.25,0,.33s-.06.34-.09.45,0,.13,0,.22A.35.35,0,0,1,37.6,49Zm-9.09-.32a.35.35,0,0,1-.26-.12l-.07-.08-.56-.68-.55-.72c-.14-.19-.41-.58-.55-.78L26,45.45l-.12-.19-.42-.69c-.14-.23-.4-.7-.54-.94s-.4-.74-.52-1l-.73-1.5a.35.35,0,1,1,.62-.29L25,42.33c.12.24.37.72.51,1s.39.7.53.92l.41.68.12.19c.13.2.4.61.54.81s.39.57.53.76l.54.71.52.63.09.1a.35.35,0,0,1,0,.49A.34.34,0,0,1,28.51,48.66Zm1.44-.55.24-.25-.25.24-.43-.38-.62-.61-.27-.29c-.11-.11-.33-.37-.44-.5l-.3-.37-.21-.26-.39-.52-.45-.64-.45-.69L26,43.27l-.1-.17c-.11-.19-.33-.57-.43-.77l-.41-.78L24.85,41a.35.35,0,1,1,.63-.29l.24.5.41.78c.1.19.31.56.41.74l.1.17.32.54.43.66.44.62.38.51.19.25.29.36c.1.12.31.36.42.48l.27.29.59.58.39.35-.19.3Zm2.74-.51h-.27l-.3,0-.33-.08-.34-.12-.33-.15L30.78,47l-.33-.2-.37-.26-.36-.29L29.37,46,29,45.62l-.23-.24-.61-.7c-.1-.13-.24-.29-.3-.39l-.36-.48c-.09-.12-.28-.39-.37-.53l-.36-.56-.15-.25a.35.35,0,1,1,.59-.36l.16.27.34.53c.08.13.26.38.35.5l.36.48c.07.11.19.25.28.35l.43.51.15.16.19.2.35.34.34.3.3.25.33.24.32.2.28.15.28.13.28.1.25.06.23,0h.24l.57-.13a.36.36,0,0,1,.47.17.33.33,0,0,1-.15.44l-.58.18-.29,0Zm41.14-1.87a.35.35,0,0,1-.31-.5l.2-.4c.22-.48.67-1.47.88-2,.11-.22.26-.59.38-.86l.07-.16.33-.8.1-.24c.11-.27.32-.79.42-1.06s.31-.82.41-1.09.24-.67.35-1l.15-.43a.35.35,0,0,1,.65.24l-.15.42c-.11.3-.26.74-.35,1s-.31.82-.41,1.09-.31.81-.42,1.08l-.1.24-.33.8-.07.17c-.12.28-.29.67-.39.88-.21.48-.66,1.48-.89,2l-.2.4A.34.34,0,0,1,73.83,45.73Zm5.71-.45-.13,0a.35.35,0,0,1-.19-.45c.1-.25.2-.48.26-.65.18-.45.53-1.32.7-1.76s.52-1.37.68-1.8.43-1.2.61-1.69l.72-2.08a.4.4,0,0,1,.46-.27c.18.06.3.2.24.38l0,.11-.73,2.08c-.18.5-.46,1.28-.61,1.7s-.48,1.27-.66,1.74-.54,1.4-.73,1.84l-.27.66A.35.35,0,0,1,79.54,45.28Zm-59.3-1.17a.35.35,0,0,1-.32-.2l-.34-.79c-.24-.57-.64-1.5-.83-2L18.3,40l-.43-1.13-.41-1.15c-.1-.29-.3-.87-.4-1.17l-.26-.79a.35.35,0,1,1,.66-.21c.09.28.19.59.26.78s.29.87.4,1.16l.41,1.15.42,1.11c.11.28.33.83.44,1.1.2.49.59,1.41.83,2l.34.77a.35.35,0,0,1-.17.46A.36.36,0,0,1,20.24,44.11Zm.68-.36a.35.35,0,0,1-.32-.2l-.3-.67-.64-1.5-.19-.45-.4-1-.31-.83-.07-.2c-.1-.25-.29-.77-.38-1s-.28-.8-.37-1.06l-.35-1.06-.1-.31a.35.35,0,1,1,.67-.19l.44,1.35c.08.26.26.78.36,1s.27.77.37,1l.08.21.3.82c.1.25.29.75.39,1l.19.44.63,1.5.3.66a.35.35,0,0,1-.17.46A.34.34,0,0,1,20.91,43.74Zm25.6-.12a.35.35,0,0,1-.33-.23c-.07-.21-.15-.41-.2-.56-.17-.47-.54-1.39-.75-1.84l-.12-.26-.2.41-.33.74L44,41.61l.34-.76c.11-.24.28-.58.45-.91-.16-.34-.33-.66-.44-.88-.26-.5-.84-1.53-1.15-2.06-.19-.32-.5-.8-.79-1.26a.35.35,0,0,1,.58-.38c.3.47.62,1,.81,1.28.32.54.9,1.57,1.17,2.09l.22.43.09-.16.36-.65a.35.35,0,0,1-.13-.13c-.25-.44-.52-.9-.69-1.18-.33-.55-1.06-1.65-1.44-2.2-.2-.29-.62-.87-.84-1.16l-.91-1.2-.18-.22,0,0-.34.35.47.64.46.64a.35.35,0,0,1-.56.4l-.46-.64-.43-.59a.35.35,0,0,1-.37-.49l-.07-.09c-.24-.31-.71-.91-1-1.21s-.76-.93-1-1.23-.82-1-1.1-1.27l-1-1.13a.35.35,0,0,1,0-.49.35.35,0,0,1,.49,0l1,1.14c.29.32.84,1,1.11,1.28s.78.92,1,1.24.72.9,1,1.22l.27-.28.08-.08-.38-.47a.38.38,0,0,1,0-.51.32.32,0,0,1,.47,0l0,.05.35.43c.5-.48,1.1-1,1.46-1.38.62-.57,1.9-1.69,2.55-2.27l1.07-.92a.38.38,0,0,1,.52,0,.32.32,0,0,1,0,.47l-.05,0-1,.9c-.66.58-1.93,1.7-2.55,2.27-.37.34-1,.92-1.49,1.41l.23.29c.23.3.69.9.92,1.21s.65.88.85,1.18c.39.57,1.12,1.66,1.47,2.23l.61,1,.41-.69c.32-.52,1-1.59,1.43-2.14l.58-.79a.35.35,0,1,1,.55.42l-.57.77c-.39.54-1.09,1.6-1.41,2.11s-.86,1.44-1.13,1.94l-.32.6.36.76c.21.46.58,1.4.76,1.88l.21.58a.35.35,0,0,1-.21.44Zm-19.25-1.9a.35.35,0,0,1-.3-.17c-.08-.13-.21-.37-.28-.5l-.28-.51c-.07-.13-.2-.4-.26-.54s-.19-.4-.25-.55-.12-.27-.18-.41l-.05-.13c0-.09-.1-.25-.15-.39l-.07-.17c-.06-.14-.16-.43-.21-.58l-.18-.56A1.67,1.67,0,0,0,25,37l0-.09s0-.1,0-.16l0-.19-.05-.2s0-.09,0-.17l0-.09c0-.07,0-.21-.06-.29s0-.21-.05-.28l0-.25c0-.07,0-.21,0-.28s0-.19,0-.24l0-.63c0-.05,0-.1,0-.14s0-.06,0-.11,0-.1,0-.14,0-.06,0-.11,0-.11,0-.12v-.15a1.56,1.56,0,0,1,0-.22.34.34,0,0,1,.41-.27.35.35,0,0,1,.27.41l-.36.05.34.07v.18h0s0,0,0,.09v.41c0,.05,0,.1,0,.14s0,.1,0,.17v.13c0,.06,0,.12,0,.16s0,.18,0,.25l0,.22,0,.26c0,.07,0,.16,0,.22s0,.24.06.3l0,.11s0,.1,0,.13l.05.2,0,.1c0,.16.07.25.07.3a2.13,2.13,0,0,1,.08.29l.17.51.2.55.07.18.14.36.06.14c.05.13.12.3.17.39s.18.41.24.54.19.4.25.52l.27.5c.07.13.2.36.27.48a.35.35,0,0,1-.12.48A.34.34,0,0,1,27.26,41.72Zm-1.19-.61a.29.29,0,0,1-.27-.16l0,0-.33-.68c-.08-.17-.24-.52-.31-.69s-.15-.34-.22-.52l-.07-.17c-.06-.15-.12-.31-.14-.39a2.49,2.49,0,0,1-.13-.32c-.09-.26-.2-.56-.25-.72l-.15-.47c0-.09-.06-.2-.07-.26L24,36.34c0-.07-.07-.26-.1-.35s-.05-.22-.08-.32-.07-.29-.08-.39l-.07-.34c0-.06,0-.12,0-.18l0-.16c0-.07,0-.25-.05-.34l-.1-1s0-.16,0-.25V32.5a.35.35,0,0,1,.35-.34h0a.35.35,0,0,1,.34.36V33c0,.12,0,.21,0,.27v.12c0,.07,0,.16,0,.21a1,1,0,0,1,0,.16l.06.43c0,.08,0,.23,0,.3l0,.15,0,.21c0,.06,0,.23.06.31s0,.25.07.32.06.27.08.35.06.25.09.33l.1.37c0,.07,0,.15.07.23l.15.46c.05.16.15.45.22.64s.11.29.14.37.09.26.12.34l.08.2c.07.17.16.39.22.51s.22.51.3.67l.31.65a.37.37,0,0,1-.14.49A.4.4,0,0,1,26.07,41.1Zm52.07-.75-.65-.24.07-.17.3-.8.19-.51c.11-.32.35-1,.47-1.34L79,35.92l.08-.24.37-1.15c.11-.35.32-1,.42-1.4s.24-.84.34-1.21a.35.35,0,0,1,.67.18c-.1.38-.26.92-.35,1.22s-.32,1.06-.43,1.41-.25.79-.37,1.15l-.08.24c-.11.35-.35,1-.47,1.38l-.47,1.35-.2.52-.31.82Zm-.33-.11h0Zm-54.6-.53a.27.27,0,0,1-.26-.17v0l-.31-.78-.16-.43-.11-.3-.1-.25c0-.12-.09-.27-.13-.4l-.07-.19c0-.08-.09-.25-.13-.39l-.12-.38c0-.13-.09-.28-.12-.36s-.12-.46-.17-.6-.11-.38-.15-.54-.13-.49-.16-.63-.08-.34-.12-.49L21,33.12c0-.13-.08-.42-.11-.57s-.05-.29-.08-.44l-.14-1a.35.35,0,0,1,.31-.38.33.33,0,0,1,.38.31l.13,1c0,.13,0,.31.07.4s.07.42.11.56l.12.57.13.55c0,.15.1.43.14.56s.11.43.15.56.13.45.16.6.07.21.12.36l.12.37.13.38.07.2c0,.14.1.3.13.4l.09.24.11.3.16.41.28.71a.4.4,0,0,1-.17.49A.46.46,0,0,1,23.22,39.71Zm1.24-.06a.34.34,0,0,1-.24-.1h0a.35.35,0,0,1-.08-.12l-.05-.13L24,39c0-.11-.13-.32-.2-.52l-.13-.34c0-.13-.13-.36-.16-.48l-.15-.42-.15-.46c0-.09-.07-.24-.11-.36l0-.1L23,36.08l-.06-.22c0-.13-.1-.36-.12-.47s-.08-.32-.11-.43l0-.15c0-.09,0-.2-.06-.26l-.09-.46c0-.1,0-.22-.06-.32l0-.21c0-.1,0-.24,0-.31l-.1-.85c0-.09,0-.29,0-.4s0-.31,0-.39,0-.27,0-.37v-.31a.35.35,0,0,1,.35-.34h0a.35.35,0,0,1,.34.35v.3c0,.08,0,.25,0,.34s0,.25,0,.34,0,.33,0,.42l0,.18c0,.08,0,.17,0,.23l.05.38c0,.07,0,.22,0,.33l0,.17c0,.12.05.27.06.35s.06.3.08.41,0,.16.07.27l0,.15c0,.11.07.31.1.42s.09.35.11.45l.07.23.05.2,0,.11c0,.11.07.25.1.33L24,37c0,.08.09.26.14.38s.13.38.17.49l.13.34c.07.19.15.39.2.52l.12.31,0,.12a.35.35,0,0,1-.07.38A.34.34,0,0,1,24.45,39.65Zm25.43-1.23a.34.34,0,0,1-.18,0,.35.35,0,0,1-.12-.48l.07-.12c.33-.57,1-1.65,1.34-2.19.15-.24.46-.69.67-1l.1-.14.83-1.17c.22-.3.68-.91.92-1.21s.66-.83.92-1.16l.13-.16a.35.35,0,0,1,.53.45l-.12.15c-.26.32-.69.86-.91,1.15s-.69.9-.91,1.19l-.82,1.15-.1.14c-.2.29-.5.73-.65,1-.35.54-1,1.6-1.31,2.13l-.09.16A.34.34,0,0,1,49.88,38.41Zm-17.69-2a.33.33,0,0,1-.28-.15l-.25-.37-.33-.46c-.09-.12-.26-.34-.35-.44s-.26-.32-.35-.43-.26-.3-.35-.4l-.34-.36-.4-.39L29.17,33l-.37-.31-.37-.27-.13-.09-1.22-.62-.56-.11-.53.1-.22.15a.35.35,0,1,1-.44-.54l.39-.24L26.2,31l.35,0,.91.19,1.18.61.21.14.39.29.39.33.4.36.39.37.38.41c.09.09.29.31.38.43s.28.33.36.44.27.34.35.45l.29.4.31.44a.35.35,0,0,1-.29.55Zm45.49-.29-.11,0a.35.35,0,0,1-.22-.43l.1-.32c.1-.3.28-.86.36-1.15L78.15,33c.08-.28.23-.85.31-1.14s.22-.86.29-1.14.2-.85.26-1.14.19-.85.24-1.13.17-.83.21-1.11a.36.36,0,0,1,.4-.31.33.33,0,0,1,.3.36l0,.09c0,.25-.15.82-.21,1.1s-.18.86-.25,1.15-.2.86-.26,1.15-.22.87-.3,1.15-.23.87-.31,1.15l-.34,1.16c-.09.29-.27.87-.37,1.15l-.1.33A.34.34,0,0,1,77.68,36.09Zm5.74-.82-.66-.21.14-.43c.17-.53.41-1.3.54-1.72s.44-1.49.58-2,.42-1.51.55-2,.4-1.53.52-2l0-.09a.35.35,0,0,1,.43-.25.34.34,0,0,1,.25.42h-.36l.34.08c-.13.51-.39,1.53-.53,2s-.41,1.53-.56,2-.43,1.5-.58,2-.37,1.2-.54,1.73Zm-.33-.09h0Zm-66.46-.8a.35.35,0,0,1-.33-.25C16.2,33.81,16,33.3,16,33l-.33-1.2c0-.18-.13-.48-.2-.75l-.11-.44c-.06-.28-.18-.79-.26-1.11l0-.09-.48-2.34c-.05-.3-.15-.88-.19-1.17l0-.28a.35.35,0,0,1,.3-.39.34.34,0,0,1,.39.29l0,.26c0,.29.14.86.19,1.15l.47,2.32c.09.39.21.91.27,1.18l.11.43c.07.27.14.56.19.74l.33,1.2c.07.27.22.78.31,1.09a.35.35,0,0,1-.23.43Zm.69-.39a.31.31,0,0,1-.31-.23v0l0-.13c-.08-.27-.24-.82-.31-1.09s-.2-.81-.27-1.07-.2-.82-.25-1.09-.18-.79-.23-1.06-.16-.78-.21-1.05-.14-.81-.18-1.05-.1-.68-.14-.95-.09-.71-.12-1a.35.35,0,0,1,.31-.38.35.35,0,0,1,.38.31c0,.26.08.68.11.9s.11.76.15,1,.11.69.16,1,.16.86.22,1.12.16.79.23,1S17,31,17,31.24s.21.81.28,1.09.22.79.3,1.06l0,.14a.37.37,0,0,1-.24.45ZM31,33.47a.35.35,0,0,1-.26-.12L30.44,33,30,32.5l-.47-.44L29,31.64l-.32-.26-.38-.29-.25-.18L28,30.82l-.31-.2-.21-.12-.21-.11-.08,0L27,30.31l-.14-.06-.1,0-.17-.06-.2-.06-.18,0-.16,0-.18,0h-.18l-.54.11-.32.21-.09.08-.06.07-.11.16-.09.16-.07.15-.65-.23h0l.1-.23.09-.15.05-.08.06-.09.08-.1.09-.11.15-.14.3-.22.37-.17.41-.08h.42l.25,0h0l.14,0,.3.07.22.07.18.06.15.06.16.07.14.06.33.17.49.29.25.17.15.11.49.37.34.28.48.43c.12.11.36.34.48.46l.48.49.36.39a.35.35,0,0,1-.26.58Zm18.67-.18a.35.35,0,0,1-.27-.56l.12-.16c.25-.32.76-.94,1-1.25s.83-1,1.11-1.29l1.22-1.35c.33-.36,1-1.06,1.32-1.42l1-1a.34.34,0,0,1,.49,0,.35.35,0,0,1,0,.49l-1,1c-.33.35-1,1-1.31,1.4l-1.22,1.35c-.28.31-.83,1-1.1,1.28s-.77.92-1,1.23l-.12.15A.35.35,0,0,1,49.71,33.29Zm-15.88-.47a.35.35,0,0,1-.28-.14l-.82-1-.7-.8-.72-.78-.74-.75L30.21,29l-.38-.36-.08-.07L29.06,28c-.1-.1-.29-.25-.38-.32l-.39-.31-.37-.28-.39-.28a.38.38,0,0,1-.11-.5.32.32,0,0,1,.45-.11l.08.06.38.27.4.3.39.31c.1.08.32.25.41.35l.68.59.09.08.39.37.38.37.71.71c.24.25.61.65.79.85s.54.61.71.82l.84,1a.35.35,0,0,1-.28.56ZM81,30.7H80.9a.35.35,0,0,1-.25-.42l.47-2c.07-.29.14-.6.18-.8.08-.35.22-1,.29-1.38s.2-1,.25-1.36l0-.15c.06-.36.16-.91.2-1.2l.21-1.58a.36.36,0,0,1,.38-.31.35.35,0,0,1,.31.38l-.22,1.61c0,.3-.14.86-.2,1.22l0,.15c-.05.34-.19,1-.26,1.38s-.21,1-.29,1.4l-.18.81-.48,2A.35.35,0,0,1,81,30.7Zm-51.16-.11a.35.35,0,0,1-.24-.09l-.33-.3L29.06,30l-.3-.25-.6-.46-.28-.2-.29-.2-.28-.18-.58-.33-.18-.08-.09,0-.26-.11L26,28.12l-.09,0L25.76,28l-.14,0-.13,0-.26-.05h-.6l-.17,0-.2,0-.14.06-.39.25-.07.06-.05.06-.17.21-.1.15a1.18,1.18,0,0,0-.09.18,2.11,2.11,0,0,0-.1.24l0,.11a.36.36,0,0,1-.44.23.33.33,0,0,1-.22-.42v0l0-.1a2.42,2.42,0,0,1,.13-.31,1.64,1.64,0,0,1,.1-.22l.15-.24L23,28l.15-.17.1-.1.12-.1.2-.14.21-.11.2-.08.29-.08.24,0,.27,0h.27l.22,0,.31.06.18,0,.12,0,.28.09.29.11.28.12.11.05.17.08.62.35.31.2.31.21.3.21.62.47.31.25.21.17.36.32a.35.35,0,0,1-.24.6ZM39.68,30a.35.35,0,0,1-.26-.12l-.91-1-.19-.21L37.08,27.3c-.33-.35-1-1-1.32-1.38s-1-1.05-1.4-1.4l-.89-.87a.35.35,0,1,1,.48-.5l.9.87c.36.34,1.06,1,1.41,1.4s1,1,1.33,1.39l1.26,1.36.19.21.91,1a.35.35,0,0,1-.26.57Zm16.27,0a.35.35,0,0,1-.26-.57l1-1.19L58,26.9c.32-.35,1-1,1.31-1.37l1.38-1.38.1-.1.62-.59.32-.3a.35.35,0,1,1,.48.5l-.32.3-.61.59-.1.1L59.77,26c-.33.33-1,1-1.3,1.36L57.24,28.7l-1,1.18A.34.34,0,0,1,55.94,30Zm-35.06-.3a.35.35,0,0,1-.35-.35c0-.13,0-.31,0-.41l0-.44c0-.11,0-.34,0-.45s0-.34.06-.44,0-.27.06-.36.07-.29.1-.39l0-.11.05-.19.07-.18.09-.2.16-.29a2.39,2.39,0,0,1,.19-.3,2.09,2.09,0,0,1,.17-.22l.2-.21.28-.22.24-.15.31-.13.26-.09.33-.06.3,0h.34l.34,0,.34.06.35.09.37.12.35.14.38.17.34.17a.35.35,0,0,1,.14.47.34.34,0,0,1-.47.14l-.31-.15-.33-.15L25,25.43l-.32-.11-.32-.08-.28-.05-.29,0h-.28l-.22,0-.25,0-.2.07-.19.08-.23.14-.17.13-.18.18L22,26a1.73,1.73,0,0,0-.14.22c-.05.09-.12.21-.14.27l-.07.16-.06.14h0a.89.89,0,0,1,0,.17l0,.11c0,.09-.07.25-.09.34s0,.26-.06.35,0,.24-.05.34,0,.35,0,.46l0,.44c0,.09,0,.26,0,.38A.35.35,0,0,1,20.89,29.7ZM35,26.53a.34.34,0,0,1-.25-.11l-.18-.19c-.33-.33-1-1-1.31-1.3s-1-.93-1.32-1.26l-.56-.53-.86-.78-1.43-1.23-.66-.55a.35.35,0,1,1,.44-.54l.67.56L31,21.84l.87.79.54.5c.39.37,1,1,1.36,1.31s1,1,1.32,1.31l.19.2a.35.35,0,0,1-.25.58Zm13.13-.41a.34.34,0,0,1-.26-.12.35.35,0,0,1,0-.49l1.49-1.27,1.07-.9,2-1.67,2.06-1.75a.35.35,0,1,1,.45.53L52.9,22.19l-2,1.67-1.07.9L48.35,26A.35.35,0,0,1,48.12,26.12Zm32-.12h0a.35.35,0,0,1-.29-.39l.1-.77c0-.25.07-.54.08-.71l0-.29c0-.25.05-.55.07-.73s0-.74.05-1,0-.71,0-.94,0-.67,0-.89,0-.62-.05-.83-.07-.59-.1-.79-.09-.53-.13-.71-.12-.51-.16-.67l0-.14a.35.35,0,1,1,.66-.2l0,.12c.06.2.16.57.19.76s.11.56.14.75.07.61.1.81,0,.66.05.88,0,.69,0,.92,0,.73,0,1,0,.75-.05,1,0,.48-.07.74l0,.28c0,.18-.05.47-.09.73l-.1.78A.35.35,0,0,1,80.1,26Zm-23.4-.39a.35.35,0,0,1-.24-.59l.75-.75,1.63-1.57.85-.81.84-.78,1.81-1.65.44-.39a.35.35,0,1,1,.46.52l-.42.37L61,21.6l-.86.8-.84.8-1.62,1.56-.75.74A.34.34,0,0,1,56.7,25.61Zm-37.92-.33h0a.35.35,0,0,1-.3-.39l.07-.44c0-.14.05-.3.07-.4s.09-.34.12-.47.11-.36.15-.48l.17-.4c.05-.11.16-.3.21-.39s.18-.27.24-.35a3.29,3.29,0,0,1,.28-.31,3.19,3.19,0,0,1,.29-.26,1.88,1.88,0,0,1,.36-.23,1.65,1.65,0,0,1,.32-.16l.37-.12a3.22,3.22,0,0,1,.4-.08l.4,0h.4a4.58,4.58,0,0,1,.46.06l.36.07.09,0,.45.14.38.13.1,0,.16.07.31.13.48.23a.37.37,0,0,1,.18.47.33.33,0,0,1-.44.17L24.3,22,24,21.93l-.17-.07-.41-.14L23,21.59l-.38-.07-.39-.05h-.34l-.33,0-.3.06-.28.09-.24.12a1.88,1.88,0,0,0-.28.18l-.21.19a2.75,2.75,0,0,0-.22.24c-.06.07-.15.21-.2.29l-.17.33-.15.37a3.47,3.47,0,0,0-.12.38c0,.14-.1.35-.12.46s0,.24-.07.36l-.06.42A.35.35,0,0,1,18.78,25.28Zm67.42-.11h-.35L85.53,25l0-.17c.12-.5.33-1.5.44-2l.13-.67c.1-.48.2-1,.26-1.34.09-.49.26-1.48.34-2,0-.17.07-.43.11-.66l.09-.56c0-.24.07-.53.1-.7l0-.33a.35.35,0,0,1,.38-.3.35.35,0,0,1,.3.38l0,.33c0,.17-.06.47-.1.71l-.09.57c0,.23-.08.5-.11.66-.08.49-.25,1.49-.34,2-.06.33-.17.87-.26,1.35l-.13.67c-.11.51-.33,1.52-.44,2Zm-.35,0h0Zm-71.39-.93a.35.35,0,0,1-.34-.31l0-.21c0-.28-.08-.82-.09-1.09s0-.77-.06-1,0-.74,0-1,0-.71,0-.95,0-.67.05-.9.07-.63.1-.85.11-.58.14-.78.14-.55.19-.72.17-.51.24-.68a5.74,5.74,0,0,1,.25-.54.35.35,0,0,1,.47-.14.35.35,0,0,1,.14.47c-.07.14-.17.35-.22.47s-.17.46-.22.62-.14.49-.17.66-.11.55-.14.74-.07.59-.09.8,0,.65-.05.86,0,.69,0,.92,0,.72,0,1,0,.76.06,1,.07.8.09,1.06l0,.2a.34.34,0,0,1-.3.38Zm1-.42a.35.35,0,0,1-.35-.33v-.26c0-.22,0-.67,0-.9s0-.65,0-.86,0-.61,0-.82.05-.6.08-.79.08-.53.12-.71.06-.26.09-.4l.1-.37c.05-.17.13-.41.18-.53l.05-.13c.06-.15.14-.33.19-.43s.2-.38.28-.5.25-.35.34-.46a4.25,4.25,0,0,1,.38-.38c.09-.08.3-.24.4-.31a4.53,4.53,0,0,1,.48-.25L18,16a3.77,3.77,0,0,0-.36.19l-.32.25a3.16,3.16,0,0,0-.31.31c-.08.09-.22.28-.29.38s-.18.32-.24.43l-.17.39-.05.13c0,.11-.11.33-.16.48l-.08.33c0,.14-.07.28-.08.37s-.09.51-.11.68-.06.54-.08.73,0,.6,0,.8,0,.64,0,.84,0,.65,0,.87v.24a.35.35,0,0,1-.33.37Zm47.76-1.25a.34.34,0,0,1-.25-.11A.35.35,0,0,1,63,22l.63-.57.76-.68.76-.66.77-.65.77-.63.79-.62.78-.59,1.51-1.07a.35.35,0,0,1,.39.58l-1.49,1.05-.72.54-.82.65-.77.63-.76.64-.76.66-.74.67-.62.56A.35.35,0,0,1,63.19,22.57Zm-30.76,0a.35.35,0,0,1-.24-.09l-.84-.76L29.8,20.34l-.25-.21L29,19.67,28.22,19l-.73-.58-.07-.05-.79-.61L25.57,17a.35.35,0,0,1-.08-.48.35.35,0,0,1,.48-.08l1.07.78.81.62.8.64.8.66.54.46.25.21,1.58,1.39.84.77a.35.35,0,0,1-.24.6Zm50.35-2.08h0a.35.35,0,0,1-.32-.37c0-.2,0-.4,0-.53,0-.3,0-.89.05-1.19v-.81c0-.12,0-.23,0-.32s0-.42,0-.55,0-.38,0-.5-.06-.75-.09-1-.09-.69-.14-.91-.14-.63-.18-.84S82,13.2,82,13.1l-.13-.37-.14-.34-.15-.32-.13-.24a.35.35,0,1,1,.6-.35l.16.28.17.35.15.37.13.39c0,.1.09.3.12.4s.16.68.2.91.12.71.14,1,.08.76.09,1,0,.4,0,.53,0,.42,0,.56,0,.2,0,.33v.82c0,.31,0,.92-.05,1.22,0,.14,0,.34,0,.54A.35.35,0,0,1,82.79,20.49Zm-55.51-.89a.35.35,0,0,1-.21-.07l-.34-.26-.51-.37-.71-.5-.69-.46-.69-.43L24,17.4l-.49-.28L23.21,17l-.42-.22-.63-.29-.62-.25L21,16l-.58-.15-.52-.08-.24,0a.35.35,0,0,1-.33-.36.32.32,0,0,1,.37-.33l.29,0,.58.09.62.16.63.21.66.27.66.31.43.23.24.13.52.3.18.11.71.44.72.47.72.51.51.37.35.26a.35.35,0,0,1-.21.62Zm28.77-.18a.35.35,0,0,1-.22-.61l1.07-.91,2.45-2.09,1.27-1.08,1.29-1.09.51-.43a.35.35,0,0,1,.45.53l-.52.44-1.29,1.09L59.8,16.34l-2.45,2.08-1.07.91A.34.34,0,0,1,56.05,19.41Zm8.25-.87a.34.34,0,0,1-.25-.11.35.35,0,0,1,0-.49l.46-.39,1.55-1.3.22-.18.74-.6.86-.68.08-.06,1-.72.68-.5,1.21-.86.29.22.2.29,0,0L70,14.05l-.67.5-.88.67-.15.11-.85.67-.73.59-.22.18L65,18.08l-.44.37A.35.35,0,0,1,64.3,18.54Zm7.33-2.41-.24-.26-.17-.3.79-.45.73-.37.71-.32.69-.26.6-.18c.23-.06.55-.13.71-.16s.47-.07.63-.08h.58a5.75,5.75,0,0,1,.59.08l.53.14a4.56,4.56,0,0,1,.51.23,4.49,4.49,0,0,1,.46.31,5,5,0,0,1,.41.38c.1.1.25.3.34.42a.35.35,0,1,1-.56.41c-.08-.11-.21-.27-.29-.36a4.4,4.4,0,0,0-.34-.31,3.27,3.27,0,0,0-.36-.24,3.8,3.8,0,0,0-.4-.18l-.44-.12-.48-.06h-.5l-.56.07-.59.13-.62.19-.64.24-.68.31-.71.36Zm-47.29,0a.34.34,0,0,1-.19-.05l-.62-.39-.18-.11-.57-.33L22,14.84l-.7-.33-.68-.28L20,14l-.62-.15a5.49,5.49,0,0,0-.57-.08l-.56,0-.51,0a3.88,3.88,0,0,0-.43.11,3.48,3.48,0,0,0-.42.18,3.84,3.84,0,0,0-.38.24.35.35,0,1,1-.41-.56,4.37,4.37,0,0,1,.47-.29,4.53,4.53,0,0,1,.52-.22,5,5,0,0,1,.56-.14l.59-.05.64,0c.16,0,.48.06.65.09s.5.11.67.16l.69.23.73.29.72.34.75.39.58.34.18.11.65.4a.35.35,0,0,1-.19.64Zm63.28-.81h0a.34.34,0,0,1-.31-.38c.05-.48.12-1.24.15-1.64,0-.23.06-.66.07-.88l0-.87c0-.2,0-.61,0-.82s0-.61,0-.8,0-.57,0-.77,0-.3,0-.47l-.05-1c0-.15-.06-.52-.07-.7l-.07-.59a.35.35,0,0,1,.3-.39.34.34,0,0,1,.39.3l.08.61c0,.19,0,.54.07.71l.05,1c0,.18,0,.37,0,.49s0,.58,0,.78,0,.61,0,.82,0,.62,0,.83l0,.87c0,.22,0,.68-.07.91,0,.39-.1,1.16-.15,1.65A.34.34,0,0,1,87.62,15.29ZM64,12.69a.35.35,0,0,1-.22-.61l.93-.79,1.24-1,1.35-1.11L68.62,8,69,7.77,70,7l.45-.36a.35.35,0,0,1,.43.55l-.45.36-1,.82-.34.28L67.7,9.69l-1.34,1.11-1.24,1-.93.79A.34.34,0,0,1,64,12.69Zm8.83-.51-.24-.26-.18-.3.5-.3.67-.38.09,0,.79-.41.85-.38.81-.3.79-.24.76-.15.37,0h.37a6.28,6.28,0,0,1,.69,0,5.74,5.74,0,0,1,.65.14,6,6,0,0,1,.6.24l.27.15.09.06.12.08a.35.35,0,0,1-.39.57l-.11-.07L80,10.43a5.23,5.23,0,0,0-.52-.21A4.77,4.77,0,0,0,79,10.1a5.54,5.54,0,0,0-.6,0h-.32l-.31,0-.7.14-.74.22-.77.29-.82.36-.76.4-.09,0-.65.37Zm-.77-6a.35.35,0,0,1-.21-.62l.85-.63L74,4c.32-.22,1-.67,1.3-.88s.93-.6,1.25-.8l.33-.2.27-.16.62-.33L78.93,1l.29-.13a.35.35,0,0,1,.27.64l-.22.09c-.35.16-.91.44-1.19.58l-.59.31-.27.16-.32.19c-.32.19-.93.59-1.24.79s-1,.65-1.28.87l-1.3.92-.84.62A.34.34,0,0,1,72,6.15ZM87.35,5A.35.35,0,0,1,87,4.7L87,4.51c0-.1-.08-.27-.12-.39l0-.13c0-.11-.13-.35-.18-.47l-.21-.46c0-.08-.15-.29-.21-.39l-.07-.12L86,2.3c-.06-.08-.18-.25-.25-.32a3.52,3.52,0,0,0-.28-.3l-.28-.26a3.27,3.27,0,0,0-.29-.2L84.57,1,84.22.91,83.86.8,83.49.73l-.41,0h-.41l-.44,0L81.8.79,81.31.9,81.07,1a.35.35,0,0,1-.43-.24A.34.34,0,0,1,80.89.3l.26-.07.52-.12L82.17,0l.48,0h.46l.46,0L84,.13l.43.12a4.32,4.32,0,0,1,.41.17,3.35,3.35,0,0,1,.39.21c.08,0,.26.17.36.24a4.57,4.57,0,0,1,.34.31,4.5,4.5,0,0,1,.31.34c.07.07.21.27.28.36s.13.19.19.3l.07.11c.07.11.19.34.25.46l.22.48c.06.13.15.39.2.53l0,.14c0,.14.1.32.13.42l.05.2a.35.35,0,0,1-.24.42Z"></path> <path class="cls-1" d="M2.13,75.59a.14.14,0,0,1,0-.28L48.8,62.1h.08L95.74,75.31a.14.14,0,1,1-.08.27L48.83,62.38,2.17,75.58Z"></path> </g> </g> </svg> 